<?xml version="1.0" standalone="no"?>
<!DOCTYPE svg PUBLIC "-//W3C//DTD SVG 1.1//EN" "http://www.w3.org/Graphics/SVG/1.1/DTD/svg11.dtd" >
<svg xmlns="http://www.w3.org/2000/svg">
<metadata></metadata>
<defs>
<font id="SheepSansBold" horiz-adv-x="1116" >
<font-face units-per-em="2048" ascent="1536" descent="-512" />
<missing-glyph horiz-adv-x="546" />
<glyph horiz-adv-x="0" />
<glyph horiz-adv-x="2048" />
<glyph unicode=" "  horiz-adv-x="546" />
<glyph unicode="&#x09;" horiz-adv-x="546" />
<glyph unicode="&#xa0;" horiz-adv-x="546" />
<glyph unicode="!" horiz-adv-x="624" d="M184 125q0 70 39 108.5t107 38.5t108.5 -38.5t40.5 -108.5q0 -66 -41 -107t-108 -41q-68 0 -107 41t-39 107zM215 705v698h234v-698l-35 -369h-162z" />
<glyph unicode="&#x22;" horiz-adv-x="686" d="M143 961v442h232l-74 -442h-158zM383 961v442h231l-73 -442h-158z" />
<glyph unicode="#" d="M25 426l43 199h151q10 43 21.5 81.5t21.5 90.5h-141l41 196h145q16 72 35.5 153t36.5 146h205l-72 -299h125q16 72 36.5 153t37.5 146h204l-73 -299h149l-49 -196h-143q-10 -45 -21.5 -83t-21.5 -89h139l-49 -199h-135q-18 -74 -38 -159t-38 -156h-205l74 315h-125 q-16 -74 -36.5 -159t-37.5 -156h-207l76 315h-149zM426 625h123q10 43 21.5 81.5t21.5 90.5h-123z" />
<glyph unicode="$" d="M117 57l80 213q47 -29 108.5 -52t136.5 -28v449q-59 31 -114.5 64.5t-98.5 82t-69.5 112t-26.5 153.5q0 147 75 241t234 123v178h205v-170q88 -4 150.5 -22.5t128.5 -48.5l-70 -203q-47 20 -97 38.5t-112 24.5v-405q61 -31 119.5 -68t105 -86t74 -113.5t27.5 -150.5 q0 -156 -83 -259t-243 -138v-182h-205v167q-201 10 -325 80zM367 1061q0 -51 30.5 -91t75.5 -69v301q-59 -16 -82.5 -55t-23.5 -86zM616 203q53 18 88 61t35 111q0 66 -33.5 105.5t-89.5 72.5v-350z" />
<glyph unicode="%" horiz-adv-x="1583" d="M115 1065q0 94 25.5 162.5t69.5 112.5t104.5 64.5t131.5 20.5q70 0 130.5 -18t105.5 -61t70.5 -112t25.5 -169q0 -98 -25.5 -167t-70.5 -112t-105.5 -62t-130.5 -19q-72 0 -132 19t-104 62t-69.5 112t-25.5 167zM236 82l1019 1362l154 -119l-1020 -1364zM330 1065 q0 -94 30.5 -134t85.5 -40q53 0 84 37t31 137q0 102 -30.5 139t-84.5 37q-55 0 -85.5 -37t-30.5 -139zM846 307q0 94 25.5 163t69.5 113t104.5 64.5t132.5 20.5q70 0 130 -18.5t105 -61.5t70.5 -111.5t25.5 -169.5q0 -98 -25.5 -166.5t-70.5 -111.5t-105.5 -62.5 t-129.5 -19.5q-72 0 -132.5 19.5t-104.5 62.5t-69.5 111.5t-25.5 166.5zM1061 307q0 -94 30.5 -134t86.5 -40q53 0 83.5 37t30.5 137q0 102 -30.5 139t-83.5 37q-55 0 -86 -37t-31 -139z" />
<glyph unicode="&#x26;" horiz-adv-x="1667" d="M219 393q0 76 25.5 145.5t67.5 130t97.5 111.5t116.5 92q-43 66 -69.5 130.5t-26.5 142.5q0 53 17.5 103t54.5 90t96 63.5t143 23.5q88 0 148.5 -22.5t97.5 -59t53.5 -84t16.5 -96.5q0 -86 -56.5 -173t-185.5 -167q55 -92 134 -192.5t155 -181.5q35 53 68.5 133t60.5 153 l188 -86q-14 -37 -34.5 -83t-45 -93t-50 -91t-46.5 -77q66 -61 122 -99t122 -75l-143 -164q-59 29 -120 72t-120 100q-70 -66 -170 -114t-246 -48q-96 0 -181 28t-149.5 80t-102.5 130t-38 178zM446 397q0 -49 21.5 -89t58.5 -66.5t85.5 -41t101.5 -14.5q72 0 141.5 29 t110.5 70q-49 51 -95.5 107.5t-88.5 112.5t-78.5 108.5t-65.5 95.5q-82 -66 -136.5 -140.5t-54.5 -171.5zM653 1145q0 -43 15.5 -87t42.5 -85q74 51 101.5 91t27.5 69q0 43 -20.5 70.5t-71.5 27.5q-47 0 -71 -23.5t-24 -62.5zM965 285q4 6 10 12l12 12l4 -49q-8 6 -14 12.5 t-12 12.5z" />
<glyph unicode="'" horiz-adv-x="446" d="M143 961v442h232l-74 -442h-158z" />
<glyph unicode="(" horiz-adv-x="573" d="M88 500q0 106 18.5 227t60.5 244t109.5 241.5t165.5 225.5l154 -109q-80 -102 -134 -208.5t-86 -213t-45.5 -210t-13.5 -197.5q0 -90 15.5 -195.5t49.5 -214t86 -213t128 -194.5l-156 -111q-96 100 -163.5 217t-109.5 237.5t-60.5 241.5t-18.5 232z" />
<glyph unicode=")" horiz-adv-x="573" d="M-43 1325l156 113q96 -102 162.5 -218t108.5 -238t60.5 -241.5t18.5 -230.5q0 -109 -18.5 -228.5t-60.5 -242.5t-108.5 -242t-164.5 -225l-152 109q80 102 133 208.5t85 213t45.5 209t13.5 198.5q0 88 -16.5 193.5t-50.5 214t-86 213t-126 194.5z" />
<glyph unicode="*" horiz-adv-x="718" d="M51 1049v182h133l-69 123l157 92l70 -117l2 -6q0 2 1 2t1 2l68 115l157 -82l-75 -127l-4 -4q4 0 6 1t4 1h137v-182h-135l6 -7l65 -110l-153 -92l-72 114l-6 19q-2 -4 -1 -5t-1 -5l-72 -117l-159 90l69 113h-129z" />
<glyph unicode="+" horiz-adv-x="1034" d="M57 573v211h334v342h213v-342h332v-211h-332v-342h-213v342h-334z" />
<glyph unicode="," horiz-adv-x="399" d="M33 -152q59 25 95 61t48 73q-49 4 -81 39t-32 98t40 102t106 39q76 0 123 -51t47 -150q0 -76 -23.5 -134t-61.5 -101t-84 -71.5t-91 -43.5z" />
<glyph unicode="-" horiz-adv-x="737" d="M88 475v217h535v-217h-535z" />
<glyph unicode="." horiz-adv-x="438" d="M63 125q0 70 40 108.5t106 38.5q70 0 109.5 -38.5t39.5 -108.5q0 -66 -39.5 -107t-109.5 -41q-66 0 -106 41t-40 107z" />
<glyph unicode="/" horiz-adv-x="724" d="M-106 -193l722 1631l189 -84l-723 -1630z" />
<glyph unicode="0" d="M63 702q0 362 121 542.5t353 180.5q248 0 360.5 -179t112.5 -544q0 -362 -119 -543.5t-354 -181.5q-246 0 -360 190.5t-114 534.5zM297 702q0 -115 14.5 -210t43 -162.5t74.5 -105.5t108 -38q123 0 182 124t59 392q0 115 -12 209.5t-41 162t-75 105.5t-113 38 q-123 0 -181.5 -124.5t-58.5 -390.5z" />
<glyph unicode="1" d="M102 1073l455 352h119v-1208h260v-217h-750v217h267v870l-238 -172z" />
<glyph unicode="2" d="M100 0v109q41 43 99.5 107.5t122 142t126 164.5t111.5 176t80 176.5t31 162.5q0 78 -43 128.5t-133 50.5q-66 0 -137.5 -34t-131.5 -81l-98 172q84 72 186.5 111.5t212.5 39.5q90 0 160 -26.5t118 -74.5t73.5 -114.5t25.5 -146.5q0 -104 -37 -214t-97 -217.5t-135 -211 t-149 -195.5l-12 -8h457v-217h-830z" />
<glyph unicode="3" d="M143 41l62 209q57 -29 123.5 -46.5t136.5 -17.5q113 0 187.5 64.5t74.5 171.5q0 117 -67.5 171t-190.5 54h-178v105l282 436h-2h-419v215h753v-107l-301 -450q76 -8 140.5 -40t110.5 -83t72.5 -122t26.5 -159q0 -113 -38.5 -198.5t-105.5 -145t-157 -90.5t-192 -31 q-86 0 -167 17.5t-151 46.5z" />
<glyph unicode="4" d="M20 408v112l650 903h159v-807h224v-208h-224v-408h-225v408h-584zM334 614q8 2 12 1t14 1h244v357l-252 -340zM604 973v18l14 158l72 -19q-16 -33 -32.5 -66.5t-32.5 -64.5z" />
<glyph unicode="5" d="M119 29l63 204q63 -25 118.5 -36t123.5 -11q115 0 189.5 65.5t74.5 192.5q0 119 -73.5 177.5t-204.5 58.5q-41 -2 -100.5 -5t-98.5 -5v733h668v-215h-449v-301q10 2 21.5 2h21.5q205 -2 323.5 -113.5t118.5 -322.5q0 -117 -38.5 -205t-106.5 -148.5t-158 -91.5t-192 -31 q-92 0 -162 12.5t-139 39.5z" />
<glyph unicode="6" d="M96 483q0 197 53.5 362t147.5 287.5t223 199.5t281 100l49 -195q-186 -35 -312 -152.5t-178 -277.5q41 23 97.5 40t115.5 17q197 0 307.5 -111.5t110.5 -314.5q0 -96 -28.5 -179t-85 -146.5t-138.5 -99.5t-188 -36q-102 0 -186 33t-143.5 97.5t-92.5 158.5t-33 217z M322 465q0 -53 14 -102.5t43 -89.5t72 -63.5t100 -23.5q92 0 149.5 67t57.5 169q0 233 -217 233q-76 0 -133.5 -35.5t-83.5 -82.5q-2 -20 -2 -31.5v-24.5v-16z" />
<glyph unicode="7" d="M98 1188v215h869v-94l-559 -1309h-236l502 1169l14 21q-2 0 -3 -1t-3 -1h-584z" />
<glyph unicode="8" d="M113 354q0 121 52 209t169 162q-82 55 -137.5 133t-55.5 199q0 82 29 149.5t81 116.5t128 75.5t168 26.5q88 0 159.5 -25.5t122 -69.5t77 -106.5t26.5 -136.5q0 -109 -40 -190.5t-142 -161.5q45 -31 83.5 -65.5t67.5 -76.5t45.5 -94.5t16.5 -115.5q0 -90 -30 -165 t-85 -128t-136 -83t-186 -30q-100 0 -177 30t-129 80t-79.5 118.5t-27.5 148.5zM336 373q0 -78 50 -132.5t151 -54.5q80 0 141 45.5t61 141.5q0 47 -18.5 84t-50 67.5t-72.5 55t-86 47.5q-100 -57 -138 -124t-38 -130zM367 1061q0 -41 17 -75t46 -62.5t67 -53t78 -45.5 q72 57 103 110.5t31 119.5q0 78 -48.5 120t-115.5 42q-86 0 -132 -48.5t-46 -107.5z" />
<glyph unicode="9" d="M82 963q0 98 28.5 183t85 147.5t140.5 97t194 34.5q213 0 331 -134t118 -382q0 -223 -53.5 -390t-147.5 -282.5t-223 -180t-279 -83.5l-55 195q205 33 327 143.5t169 272.5q-43 -25 -93.5 -35t-121.5 -10q-86 0 -162 27.5t-133 81.5t-91 133.5t-34 181.5zM313 979 q0 -117 61.5 -174t160.5 -57q78 0 134 22.5t81 60.5q4 18 4 29.5v24.5v18q0 61 -13.5 117.5t-42 100.5t-72.5 70t-106 26q-98 0 -152.5 -62.5t-54.5 -175.5z" />
<glyph unicode=":" horiz-adv-x="448" d="M145 125q0 70 40 108.5t108 38.5t108.5 -38.5t40.5 -108.5q0 -66 -41 -107t-108 -41q-68 0 -108 41t-40 107zM145 889q0 70 40 108.5t108 38.5t108.5 -39t40.5 -108q0 -66 -41 -107t-108 -41q-68 0 -108 41t-40 107z" />
<glyph unicode=";" horiz-adv-x="524" d="M111 -152q59 25 95 61t50 73q-51 4 -83 39t-32 98t41 102t107 39q76 0 123 -51t47 -150q0 -76 -24.5 -134t-62.5 -101t-84 -71.5t-91 -43.5zM156 889q0 70 38.5 108.5t106.5 38.5t109 -39t41 -108q0 -66 -41 -107t-109 -41t-106.5 41t-38.5 107z" />
<glyph unicode="&#x3c;" horiz-adv-x="1034" d="M61 596v96l768 469l111 -182l-489 -299l-80 -33q23 -10 40 -15t40 -11l497 -297l-110 -179z" />
<glyph unicode="=" horiz-adv-x="1034" d="M57 416v211h879v-211h-879zM57 729v213h879v-213h-879z" />
<glyph unicode="&#x3e;" horiz-adv-x="1034" d="M47 981l111 180l776 -450v-97l-768 -469l-109 181l490 299l80 32q-20 8 -40 14.5t-40 12.5z" />
<glyph unicode="?" horiz-adv-x="892" d="M39 1309q90 55 181 85.5t216 30.5q92 0 163 -26.5t118 -73.5t70.5 -109.5t23.5 -136.5q0 -72 -16.5 -129t-43 -103t-60.5 -86t-68 -77q-31 -33 -59.5 -65.5t-51.5 -73.5t-36 -91.5t-13 -117.5h-197q-4 29 -5 47t-1 33q0 68 16.5 123t42 101t57.5 85t64 76 q49 55 93.5 117.5t44.5 140.5q0 70 -41 114t-140 44q-63 0 -137 -28t-137 -69zM225 125q0 70 40 108.5t106 38.5q70 0 109.5 -38.5t39.5 -108.5q0 -66 -40 -107t-109 -41q-66 0 -106 41t-40 107z" />
<glyph unicode="@" horiz-adv-x="2179" d="M168 485q0 215 73.5 389.5t200.5 297t295 188t357 65.5q178 0 330.5 -52t265 -151.5t177 -242.5t64.5 -324q0 -129 -45 -246.5t-120.5 -206.5t-178 -141.5t-215.5 -52.5q-92 0 -147.5 35t-65.5 129q-59 -66 -137 -115t-168 -49q-53 0 -101 22.5t-84 65.5t-57.5 102.5 t-21.5 133.5q0 129 43 253t115.5 221t169 155.5t204.5 58.5q68 0 112 -17.5t81 -41.5l51 47h125l-105 -590q-18 -102 -18 -150q0 -53 35 -53q57 0 113.5 30.5t100.5 88t71.5 139.5t27.5 182q0 135 -47 240.5t-131 178.5t-199.5 110t-255.5 37q-147 0 -275 -54.5 t-223.5 -149.5t-149.5 -228.5t-54 -288.5q0 -160 50 -286t141.5 -212t219.5 -131t283 -45q53 0 126 16.5t151 53.5l59 -197q-53 -23 -99 -38t-89 -24.5t-85 -12.5t-85 -3q-184 0 -346 55.5t-282 165t-188.5 270t-68.5 373.5zM813 356q0 -59 22.5 -99t79.5 -40q33 0 69 22.5 t71 60.5t66.5 86t58.5 99l51 289q-23 25 -46.5 31t-58.5 6q-66 0 -123 -41t-99 -106.5t-66.5 -146.5t-24.5 -161z" />
<glyph unicode="A" horiz-adv-x="1198" d="M-25 0l547 1464l125 -12l543 -1452h-252l-139 377h-445q-31 -92 -67.5 -190.5t-69.5 -186.5h-242zM432 592h289q-33 88 -65.5 181t-65.5 179l-12 35q-4 -10 -7.5 -18t-5.5 -19z" />
<glyph unicode="B" horiz-adv-x="1196" d="M143 18v1397q86 16 192.5 25.5t219.5 9.5q82 0 167 -14.5t155.5 -54.5t115.5 -111.5t45 -184.5q0 -90 -42 -175t-132 -138q100 -35 172 -120t72 -228q0 -115 -46 -199t-123 -137t-175 -78.5t-201 -25.5q-29 0 -80 1t-111.5 4t-122 10t-106.5 19zM381 209q14 -2 31.5 -1 t33.5 -1q4 0 9.5 -1t9.5 -1q29 -2 60.5 -3t54.5 -1q55 0 106 12t89 39t61.5 66.5t23.5 93.5q0 68 -28.5 108.5t-74.5 64t-102.5 32t-113.5 8.5h-160v-416zM381 838h63q31 0 75 1t73 5q80 29 139.5 80t59.5 129q0 51 -21.5 86t-56.5 56.5t-80 29.5t-92 8q-49 0 -89 -1t-71 -5 v-389zM590 842l2 2h2z" />
<glyph unicode="C" horiz-adv-x="1169" d="M86 717q0 199 55.5 339t144.5 229t201.5 130t227.5 41q125 0 196 -12q39 -6 95.5 -21.5t128.5 -44.5l-127 -196q-57 27 -127 41t-154 14q-74 0 -143.5 -27.5t-125 -89t-89 -161t-33.5 -242.5q0 -129 31.5 -227.5t87 -163t131.5 -97t164 -32.5q82 0 148.5 20.5t119.5 52.5 l135 -145q-74 -53 -134.5 -87t-109.5 -44q-45 -10 -93 -13.5t-103 -3.5q-129 0 -243 43t-200 134.5t-135 230.5t-49 332z" />
<glyph unicode="D" horiz-adv-x="1339" d="M119 0v1430q86 8 140 12t101 4h11q45 2 92 3t82 1q172 0 299 -53.5t210 -148.5t123 -228t40 -293q0 -145 -38 -279.5t-121 -238t-214 -165.5t-318 -62q-35 0 -88 2t-111.5 4t-113.5 5t-94 7zM358 209h25.5t24.5 -2q10 0 15 -1t13 -1q20 0 36.5 -1t31.5 -1h26 q125 0 209 44t135.5 116.5t73 167t21.5 196.5q0 88 -19.5 177t-67.5 161t-129 118t-204 46h-55.5t-59.5 -2q-8 0 -18 -1t-21 -3q-8 -2 -18 -2h-19v-1012z" />
<glyph unicode="E" horiz-adv-x="1097" d="M141 0v1434h815v-222h-577v-366h520v-219h-520v-406h588v-221h-826z" />
<glyph unicode="F" horiz-adv-x="1058" d="M141 0v1434h815v-222h-577v-385h530v-221h-530v-606h-238z" />
<glyph unicode="G" horiz-adv-x="1253" d="M86 717q0 199 58.5 339t150.5 229t207.5 130t230.5 41q121 0 208 -16.5t159 -46.5l-62 -217q-63 29 -136 45t-154 16q-74 0 -148 -26.5t-133 -88t-96 -161t-37 -244.5q0 -133 30.5 -230.5t85 -162t130 -96t165.5 -31.5q96 0 173 34v314q-76 -2 -162 -2t-156 -2v213h533 v-750q-29 -6 -45.5 -8t-26.5 -1t-17.5 3t-15.5 4q-23 4 -47.5 7t-44.5 -3q-53 -16 -107.5 -22.5t-107.5 -6.5q-139 0 -255 44.5t-201 134.5t-132 230t-47 331z" />
<glyph unicode="H" horiz-adv-x="1376" d="M145 0v1434h238v-592h573v592h238v-1434h-238v623h-573v-623h-238z" />
<glyph unicode="I" horiz-adv-x="595" d="M170 0v1434h240v-1434h-240z" />
<glyph unicode="J" horiz-adv-x="825" d="M4 299l238 18q31 -116 66 -116h1q59 0 76.5 47t17.5 129v835q-72 0 -152.5 2.5t-148.5 2.5v217h541v-1096q0 -176 -78 -266t-237 -90q-18 0 -45 1t-56 5q-37 2 -98 39q-63 41 -125 272z" />
<glyph unicode="K" horiz-adv-x="1249" d="M145 0v1434h238v-605h29q111 147 228.5 302t227.5 303h287l-549 -689q6 -6 11.5 -13t11.5 -13l588 -719h-308l-493 627h-33v-627h-238z" />
<glyph unicode="L" horiz-adv-x="1058" d="M141 0v1434h240v-1213h641v-221h-881z" />
<glyph unicode="M" horiz-adv-x="1619" d="M147 0v1434h181l438 -715l31 -70q8 18 13 34.5t11 33.5l422 717h184v-1434h-237v932l-356 -617h-91l-366 603v-918h-230z" />
<glyph unicode="N" horiz-adv-x="1378" d="M145 0v1454h144l663 -924l17 -28v6v926h227v-1454h-143l-664 933l-18 31q0 -4 1 -7t1 -7v-930h-228z" />
<glyph unicode="O" horiz-adv-x="1400" d="M88 717q0 360 152.5 549.5t439.5 189.5q154 0 265.5 -53t184 -149.5t108.5 -232.5t36 -304q0 -360 -153.5 -550t-440.5 -190q-152 0 -263.5 52.5t-184 149.5t-108.5 233.5t-36 304.5zM336 717q0 -104 20.5 -198.5t62.5 -166t106.5 -113.5t154.5 -42q164 0 255 127t91 393 q0 102 -20.5 196.5t-62.5 166t-107.5 114.5t-155.5 43q-162 0 -253 -127t-91 -393z" />
<glyph unicode="P" horiz-adv-x="1144" d="M143 0v1411q98 23 190.5 31t174.5 8q96 0 195.5 -19.5t180.5 -70.5t132 -140.5t51 -226.5q0 -135 -48 -228t-127 -149.5t-180.5 -82t-209.5 -25.5q-23 0 -61 -1t-60 3v-510h-238zM381 731q23 -2 52.5 -2h47.5h13q59 0 117.5 10.5t104.5 40t74.5 80.5t28.5 133 q0 68 -27.5 114t-70.5 73.5t-98.5 40t-110.5 12.5h-71.5t-59.5 -4v-498z" />
<glyph unicode="Q" horiz-adv-x="1400" d="M88 717q0 360 152.5 549.5t439.5 189.5q154 0 265.5 -53t184 -149.5t108.5 -232.5t36 -304q0 -360 -153.5 -550t-440.5 -190q-152 0 -263.5 52.5t-184 149.5t-108.5 233.5t-36 304.5zM336 717q0 -104 20.5 -198.5t62.5 -166t106.5 -113.5t154.5 -42q164 0 255 127t91 393 q0 102 -20.5 196.5t-62.5 166t-107.5 114.5t-155.5 43q-162 0 -253 -127t-91 -393zM520 -78v225q80 18 144 19q86 0 168.5 -21.5t168.5 -46.5h-2q96 -25 96 -147q0 -28 -5 -62l-50 -30q-86 25 -148.5 42t-100.5 27q-72 18 -142 19q-23 0 -52.5 -6.5t-76.5 -18.5z" />
<glyph unicode="R" horiz-adv-x="1218" d="M143 0v1415q90 16 195.5 25.5t189.5 9.5q96 0 183.5 -21.5t154 -70.5t106.5 -128t40 -194q0 -76 -21.5 -140.5t-60.5 -115.5t-90.5 -88t-110.5 -55q51 -74 107.5 -156t114 -165t112.5 -163.5t104 -152.5h-278l-426 610q-18 2 -36.5 3t-43.5 1v-614h-240zM383 799h113 q117 0 192.5 56t75.5 175q0 88 -60.5 145.5t-171.5 57.5h-80.5t-68.5 -4v-430z" />
<glyph unicode="S" horiz-adv-x="1087" d="M55 68l82 221q57 -31 150.5 -61.5t197.5 -30.5q113 0 190 45t77 141q0 45 -21.5 81t-58.5 64.5t-84 52t-99 46.5q-70 33 -139 68.5t-125.5 87t-91.5 121t-35 169.5q0 178 120 280.5t343 102.5q123 0 231.5 -22.5t180.5 -57.5l-72 -215q-57 29 -150.5 52.5t-197.5 23.5 q-111 0 -164 -46t-53 -108q0 -43 22.5 -75.5t59.5 -61t84 -53.5t98 -49q68 -33 137.5 -72t126 -91t92 -120.5t35.5 -163.5q0 -96 -33.5 -173t-98 -132t-158 -85t-209.5 -30q-154 0 -262.5 28t-174.5 63z" />
<glyph unicode="T" horiz-adv-x="1136" d="M12 1212v222h1082v-222h-422v-1212h-238v1212h-422z" />
<glyph unicode="U" horiz-adv-x="1335" d="M143 459v975h240v-899q0 -182 70.5 -257t216.5 -75q137 0 195.5 76.5t58.5 255.5v899h231v-945q0 -133 -35 -229t-99.5 -157.5t-153.5 -91t-199 -29.5q-524 0 -525 477z" />
<glyph unicode="V" horiz-adv-x="1163" d="M-45 1434h260l363 -990q88 244 178 496t176 494h244l-543 -1454h-125z" />
<glyph unicode="W" horiz-adv-x="1695" d="M-12 1434h250l249 -930q70 229 141.5 465.5t139.5 464.5h137l289 -914q55 223 115.5 457.5t115.5 456.5h236l-397 -1454h-148l-282 976q-74 -244 -146 -489.5t-143 -486.5h-148z" />
<glyph unicode="X" horiz-adv-x="1265" d="M-4 0l477 729q-51 82 -107.5 172t-112.5 182.5t-111.5 181.5t-104.5 169h285l286 -480q8 -16 8 -15t13 -19q78 129 155.5 258t155.5 256h270l-450 -693q55 -86 114.5 -180t121 -190.5t121 -190.5t112.5 -180h-281l-321 555q-6 -10 -15.5 -24.5t-17.5 -26.5l-326 -504 h-272z" />
<glyph unicode="Y" horiz-adv-x="1142" d="M-37 1434h281l325 -662q78 160 160 332t156 330h264l-471 -867v-567h-238v563q-55 100 -116.5 212t-123 224.5t-122 223t-115.5 211.5z" />
<glyph unicode="Z" d="M49 0v197l692 1015h-692v222h989v-197l-696 -1016h696v-221h-989z" />
<glyph unicode="[" horiz-adv-x="622" d="M137 -436v1839h418v-209h-195v-1421h195v-209h-418z" />
<glyph unicode="\" horiz-adv-x="778" d="M-109 1356l199 82l731 -1631l-194 -83z" />
<glyph unicode="]" horiz-adv-x="622" d="M43 -227h199v1421h-199v209h422v-1839h-422v209z" />
<glyph unicode="^" horiz-adv-x="1024" d="M37 825l403 598h99l364 -598h-241l-168 281l-13 41q-6 -12 -12 -26.5t-10 -26.5l-185 -269h-237z" />
<glyph unicode="_" horiz-adv-x="835" d="M-23 -180h850v-209h-850v209z" />
<glyph unicode="`" horiz-adv-x="573" d="M86 1350v92h244l155 -359h-159z" />
<glyph unicode="a" horiz-adv-x="1015" d="M29 293q0 98 71 194q80 102 209 117q59 8 122 12.5t130 4.5h21q10 0 15 1t9 1h9.5t15.5 -2q2 16 2 30.5v28.5q0 84 -33 117.5t-123 33.5q-31 0 -68.5 -6t-78.5 -16t-80 -25.5t-72 -33.5l-76 182q92 55 199 80.5t217 25.5q111 0 177.5 -30.5t102.5 -77.5t47 -105.5 t11 -115.5q0 -59 -1 -118t-3 -116q-2 -47 -4 -97t-2 -95q0 -66 6 -142q0 -47 86 -75l-10 -70h-234l-30 98q-33 -33 -78 -59q-39 -20 -104.5 -34.5t-131.5 -14.5q-68 0 -127 21.5t-102 61.5t-67.5 96t-24.5 128zM262 307q0 -49 36 -81.5t93 -32.5q47 0 96.5 12t75.5 31 q23 16 38 37.5t26 37.5v115q-18 2 -35 2h-35q-84 0 -170 -6q-35 -2 -59.5 -13.5t-38.5 -27.5q-27 -39 -27 -74z" />
<glyph unicode="b" horiz-adv-x="1105" d="M129 72v1331h227v-428q47 35 105.5 53.5t124.5 18.5q203 0 304 -126t101 -395q0 -268 -130 -405t-372 -137q-111 0 -209 26.5t-151 61.5zM356 217q31 -12 73 -18t83 -6q113 0 179.5 80.5t66.5 254.5q0 68 -11.5 124.5t-35 97.5t-61.5 64.5t-91 23.5q-80 0 -129 -42 t-74 -124v-455z" />
<glyph unicode="c" horiz-adv-x="923" d="M74 512q0 262 115.5 398.5t334.5 136.5q47 0 88 -4.5t72 -10.5q35 -8 90 -31.5t135 -64.5l-151 -162q-55 29 -110.5 46.5t-108.5 17.5q-231 0 -232 -326q0 -63 12.5 -122.5t41 -104.5t75.5 -72t117 -27q59 0 112.5 22.5t94.5 55.5l164 -108q-150 -131 -238 -154h2 q-84 -25 -174 -25q-121 0 -204 38t-136 109t-76.5 169t-23.5 219z" />
<glyph unicode="d" horiz-adv-x="1101" d="M76 508q0 264 125 398t342 134q53 0 91 -3t71 -13v379h227v-1069v-79t3 -78t9 -84t17 -97h-179l-26 94q-47 -51 -116 -82t-155 -31q-211 0 -310 127t-99 404zM307 508q0 -70 10.5 -129.5t35 -102.5t63.5 -66.5t96 -23.5q156 0 193 172v445q-29 16 -64 22t-92 6 q-113 0 -177.5 -76.5t-64.5 -246.5z" />
<glyph unicode="e" horiz-adv-x="1040" d="M74 496q0 262 117.5 398t336.5 136q72 0 143.5 -15.5t128 -60.5t92.5 -124.5t36 -211.5q0 -31 -4 -73.5t-13 -102.5h-600q2 -14 5 -32.5t8 -38.5q14 -80 47 -121q61 -78 204 -78q29 0 62 8t64.5 21.5t60.5 32t49 36.5l94 -180q-74 -59 -172 -93t-203 -34 q-117 0 -203.5 40t-144.5 112q-53 72 -84 200q-25 119 -24 181zM315 637h387q-8 102 -52 143t-120 41q-86 0 -141 -42t-74 -142z" />
<glyph unicode="f" horiz-adv-x="653" d="M18 797v209h148v32q0 197 68.5 287t240.5 90q66 0 122 -11t128 -40l-55 -201q-63 27 -105.5 35t-75.5 8q-35 0 -54 -11t-27 -28q-10 -23 -12.5 -61.5t-2.5 -99.5h252v-209h-252v-797h-227v797h-148z" />
<glyph unicode="g" horiz-adv-x="1099" d="M74 508q0 264 125 398t370 134q113 0 200 -19.5t161 -47.5v-979q0 -205 -107.5 -300t-318.5 -95q-117 0 -198 19.5t-148 47.5l63 201q57 -23 117.5 -41.5t138.5 -18.5q68 0 112 12.5t69.5 40t36 71.5t10.5 108v4q-82 -63 -222 -63q-213 0 -311 128t-98 400zM307 510 q0 -143 46 -232.5t157 -89.5q154 0 192 168v453q-33 14 -70.5 18t-84.5 4q-113 0 -176.5 -77.5t-63.5 -243.5z" />
<glyph unicode="h" horiz-adv-x="1120" d="M129 0v1403h227v-442q49 41 111.5 63.5t148.5 22.5q90 0 156 -19.5t109 -70t63.5 -134.5t20.5 -213v-610h-228v578q0 131 -31.5 195.5t-132.5 64.5q-74 0 -134 -48.5t-83 -121.5v-668h-227z" />
<glyph unicode="i" horiz-adv-x="548" d="M119 1274q0 68 133 145q41 0 80 -36.5t84 -108.5q-90 -137 -166 -137q-131 69 -131 137zM152 0v1024h227v-1024h-227z" />
<glyph unicode="j" horiz-adv-x="598" d="M-18 -193q137 0 157 13q20 8 33 33q14 29 18.5 76.5t4.5 113.5v981h227v-1036q0 -197 -69.5 -293t-223.5 -96h-18.5t-16.5 2q-14 0 -48 1t-64 1v204zM162 1274q0 68 133 145q76 0 166 -145q-47 -68 -84 -102.5t-72 -34.5q-68 0 -137 118z" />
<glyph unicode="k" horiz-adv-x="980" d="M129 0v1403h227v-805h23q70 102 145.5 212t145.5 214h276l-397 -479q51 -61 108.5 -132t114.5 -141.5t113.5 -140.5t105.5 -131h-286l-320 426h-29v-426h-227z" />
<glyph unicode="l" horiz-adv-x="598" d="M139 227v1176h228v-1133q0 -47 13 -65.5t36 -18.5t57.5 6.5t91.5 26.5l27 -190q-45 -25 -110.5 -38.5t-108.5 -13.5q-104 0 -169 57.5t-65 192.5z" />
<glyph unicode="m" horiz-adv-x="1662" d="M139 0v1024h207l2 -70q47 43 110.5 68t153.5 25q88 0 148.5 -28t99.5 -93q104 121 287 121q88 0 151.5 -19.5t103.5 -70t58.5 -135.5t18.5 -216v-606h-228v608q0 117 -27.5 173.5t-115.5 56.5q-78 0 -122 -42t-64 -126v-670h-228v575q0 131 -25.5 197t-113.5 66 q-72 0 -120 -42t-68 -108v-688h-228z" />
<glyph unicode="n" horiz-adv-x="1120" d="M129 0v1024h207l2 -68q49 41 118.5 66t157.5 25q86 0 151.5 -19.5t110 -70t67 -134.5t22.5 -213v-610h-228v578q0 131 -33.5 195.5t-125.5 64.5q-86 0 -141.5 -43t-80.5 -113v-682h-227z" />
<glyph unicode="o" horiz-adv-x="1097" d="M76 512q0 262 115.5 398.5t336.5 136.5q117 0 202 -38t141.5 -109t83 -169t26.5 -219q0 -262 -115.5 -398.5t-337.5 -136.5q-117 0 -201.5 38t-141 109t-83 169t-26.5 219zM309 512q0 -66 11.5 -124t38 -103t68.5 -72t101 -27h3q216 0 217 326q0 66 -12.5 125t-38 103 t-67.5 71t-102 27h-3q-216 0 -216 -326z" />
<glyph unicode="p" horiz-adv-x="1107" d="M129 -379v1403h209v-61q96 84 242 84q207 0 310 -121t103 -396q0 -127 -33.5 -229t-96 -174t-150.5 -111t-195 -39q-53 0 -90 4.5t-72 14.5v-375h-227zM356 221q29 -18 63 -26.5t93 -8.5q115 0 181.5 87t66.5 259q0 139 -47 222.5t-162 83.5q-158 0 -195 -172v-445z" />
<glyph unicode="q" horiz-adv-x="1099" d="M78 508q0 264 126 398t371 134q106 0 206 -22.5t151 -50.5v-1131h147v-215h-374v420q-41 -31 -93.5 -47.5t-124.5 -16.5q-211 0 -310 128t-99 403zM311 510q0 -72 10.5 -131.5t35 -102.5t63.5 -66.5t94 -23.5q80 0 125 42t66 128v455q-29 14 -67 17t-89 3 q-113 0 -175.5 -77.5t-62.5 -243.5z" />
<glyph unicode="r" horiz-adv-x="696" d="M123 0v1024h213l-2 -49q35 33 80 50t104 17q29 0 71 -7t97 -23l-49 -224q-92 33 -135 33q-63 0 -102.5 -33.5t-49.5 -85.5v-702h-227z" />
<glyph unicode="s" horiz-adv-x="862" d="M43 68l72 200q55 -29 132 -55.5t144 -26.5q66 0 108 24t42 85q0 29 -14.5 49.5t-38 35.5t-54.5 27.5t-63 24.5q-49 18 -100.5 41t-93.5 58.5t-67.5 87t-25.5 126.5q0 158 87 230t245 72q106 0 188 -23t148 -55l-56 -199q-57 29 -125.5 48.5t-136.5 19.5q-63 0 -93 -20.5 t-30 -67.5q0 -41 46 -67t110 -50q51 -18 105.5 -42t97.5 -60.5t70.5 -92t27.5 -137.5q0 -70 -22.5 -129t-68.5 -102t-114.5 -68t-161.5 -25q-117 0 -204.5 27t-153.5 64z" />
<glyph unicode="t" horiz-adv-x="694" d="M-4 815v209h123q16 53 32.5 114.5t32.5 112.5l187 4v-231h258v-209h-258v-487q0 -78 16 -110t55 -32q43 0 85 14.5t98 37.5l55 -189q-66 -31 -138.5 -51.5t-148.5 -20.5q-137 0 -193.5 74t-56.5 248v516h-147z" />
<glyph unicode="u" horiz-adv-x="1103" d="M117 414v610h227v-578q0 -131 29.5 -195.5t118.5 -64.5q84 0 137 50.5t80 121.5v666h227v-717q0 -35 1 -68.5t3 -72.5q4 -29 36 -71t97 -95h-323l-7 92q-47 -51 -116.5 -83t-163.5 -32q-86 0 -150.5 19.5t-107.5 70t-65.5 134.5t-22.5 213z" />
<glyph unicode="v" horiz-adv-x="987" d="M-23 1024h259l253 -659q59 164 120 331.5t116 327.5h248l-436 -1044h-115z" />
<glyph unicode="w" horiz-adv-x="1505" d="M-10 1024h246l196 -651q53 160 110.5 328.5t108.5 322.5h164l240 -651q43 162 90 328.5t88 322.5h227l-346 -1044h-127l-262 704q-29 -82 -61.5 -172t-65.5 -182t-64.5 -181.5t-60.5 -168.5h-127z" />
<glyph unicode="x" horiz-adv-x="1054" d="M-2 0l371 524q-41 57 -85 121t-88 129.5t-88.5 130t-82.5 119.5h276l213 -336q53 84 109.5 170t109.5 166h262l-348 -494q41 -59 88 -127.5t95.5 -138t95.5 -137.5t88 -127h-273l-235 371q-59 -92 -123 -188.5t-121 -182.5h-264z" />
<glyph unicode="y" horiz-adv-x="954" d="M-16 1024h258l256 -725q49 180 102 364.5t102 360.5h236l-299 -903q-33 -98 -65.5 -189.5t-73.5 -163t-95.5 -114.5t-128.5 -43q-84 0 -210 94l110 137q20 -6 35.5 -10t26.5 -4q39 0 76.5 47t66.5 160q-94 236 -198.5 494.5t-198.5 494.5z" />
<glyph unicode="z" horiz-adv-x="915" d="M59 0v182l445 615l18 18h-463v209h750v-182l-449 -621l-14 -12h463v-209h-750z" />
<glyph unicode="{" horiz-adv-x="708" d="M84 379v209q72 0 112 28.5t40 92.5v458q0 109 54 173.5t165 64.5h198v-209h-133q-31 0 -45 -16.5t-14 -57.5v-448q0 -72 -24.5 -117t-63.5 -72q39 -29 63.5 -78t24.5 -112v-449q0 -39 13 -56t48 -17h131v-209h-198q-104 0 -161.5 59.5t-57.5 175.5v451q0 76 -40 102.5 t-112 26.5z" />
<glyph unicode="|" horiz-adv-x="487" d="M133 -246v1649h205v-1649h-205z" />
<glyph unicode="}" horiz-adv-x="708" d="M80 -227h133q31 0 46 16t15 57v449q0 72 22.5 117t61.5 69q-37 29 -60.5 79t-23.5 116v446q0 74 -61 74h-133v209h201q104 0 160.5 -59.5t56.5 -176.5v-450q0 -76 40 -102.5t111 -26.5v-209q-72 0 -111.5 -27.5t-39.5 -93.5v-459q0 -109 -54.5 -173t-164.5 -64h-199v209z " />
<glyph unicode="~" horiz-adv-x="1034" d="M29 731q104 78 181 109.5t138 31.5q59 0 109.5 -19t97.5 -42q37 -16 73 -29.5t70 -13.5q29 0 68 19.5t98 70.5l103 -184q-96 -66 -165 -92.5t-120 -26.5q-59 0 -106.5 18.5t-90.5 40.5q-35 16 -68.5 30.5t-70.5 14.5t-87 -24.5t-126 -83.5z" />
<glyph unicode="&#xa1;" horiz-adv-x="622" d="M113 897q0 68 40 107.5t105 39.5q70 0 110 -39.5t40 -107.5t-40 -107.5t-110 -39.5q-66 0 -105.5 39.5t-39.5 107.5zM147 319l37 369h162l35 -369v-698h-234v698z" />
<glyph unicode="&#xa2;" d="M147 512q0 223 90.5 356t258.5 168v178h209v-174q59 -6 114 -23.5t105 -43.5l-66 -201q-45 20 -88 36.5t-78 22.5v-638q43 10 88 33.5t80 47.5l82 -186q-59 -41 -116.5 -66.5t-120.5 -33.5v-178h-209v176q-96 14 -162 57t-108 110.5t-60.5 157.5t-18.5 201zM381 512 q0 -49 6 -96t21.5 -87t41 -71t64.5 -49v610q-133 -59 -133 -307z" />
<glyph unicode="&#xa3;" d="M61 0v213q59 0 102.5 18.5t71 48t41 66.5t13.5 76q0 51 -8.5 92t-22.5 80h-197v209h107q-16 45 -25.5 94t-9.5 115q0 205 117 309t317 104q123 0 220.5 -21.5t168.5 -57.5l-73 -207q-55 29 -136 50t-182 21q-96 0 -147 -51t-51 -139q0 -66 13 -118t36 -99h321v-209h-233 q10 -35 14 -73t4 -85q0 -57 -15 -115.5t-48 -103.5h524v-217h-922z" />
<glyph unicode="&#xa4;" d="M8 309l178 180l31 21q-43 80 -43 182t43 182q-8 6 -15 10.5t-16 10.5l-178 180l146 146l180 -179l18 -30q80 45 185 45q49 0 97 -12.5t87 -32.5q6 14 20 30l181 179l145 -146l-178 -180l-35 -21q47 -82 47 -182t-45 -182q12 -6 17.5 -10t15.5 -11l178 -180l-145 -143 l-181 178l-18 29q-80 -43 -186 -43q-109 0 -185 43q-4 -6 -9 -14.5t-9 -14.5l-180 -178zM381 692q0 -70 43 -116t113 -46q68 0 112.5 46.5t44.5 115.5q0 70 -45 117t-112 47q-70 0 -113 -47t-43 -117z" />
<glyph unicode="&#xa5;" d="M-41 1403h272l320 -598l2 2l309 596h256l-385 -705h152v-190h-230v-43h230v-191h-230v-274h-233v274h-229v191h229v43h-229v190h151q-45 84 -94 174.5t-99.5 181.5t-98.5 180t-93 169z" />
<glyph unicode="&#xa6;" horiz-adv-x="487" d="M133 -246v713h205v-713h-205zM133 690v713h205v-713h-205z" />
<glyph unicode="&#xa7;" horiz-adv-x="1017" d="M88 707q0 68 35 132t92 117l18 5q-33 31 -53 77.5t-20 110.5q0 125 88 200.5t248 75.5q106 0 189 -21.5t149 -53.5l-56 -201q-57 29 -127.5 48.5t-134.5 19.5q-129 0 -129 -74q0 -20 14.5 -35.5t39 -28t55 -24t63.5 -23.5q55 -18 113.5 -42.5t106.5 -63.5t80 -94.5 t32 -135.5q0 -68 -32 -129t-87 -112l-27 -11q37 -35 56.5 -78.5t19.5 -111.5t-25.5 -120t-71.5 -87t-107.5 -52.5t-133.5 -17.5q-113 0 -192.5 23t-147.5 57l60 197q57 -29 124.5 -48.5t137.5 -19.5q61 0 95 16.5t34 57.5q0 23 -14.5 39t-39 29.5t-56 25t-64.5 21.5 q-55 18 -113.5 42.5t-106.5 63.5t-80 93.5t-32 132.5zM317 711q0 -29 15.5 -49.5t41 -37t58.5 -28.5t68 -25q14 -4 28.5 -10t26.5 -10q41 23 75 60.5t34 80.5q0 29 -15.5 50.5t-42 39t-61.5 29.5t-74 25q-12 4 -23.5 9t-27.5 11q-41 -23 -72 -59.5t-31 -85.5z" />
<glyph unicode="&#xa8;" horiz-adv-x="841" d="M92 1276q0 61 36 98t95 37q57 0 93 -37t36 -98q0 -55 -35.5 -93t-93.5 -38q-59 0 -95 38t-36 93zM455 1276q0 61 35.5 98t95.5 37q61 0 97 -37t36 -98q0 -55 -36 -93t-97 -38q-59 0 -95 38t-36 93z" />
<glyph unicode="&#xa9;" horiz-adv-x="1650" d="M90 588q0 166 56.5 297t151.5 222t223 138t274 47q143 0 272 -47t225.5 -138t152.5 -222t56 -297t-56 -297t-152.5 -222.5t-225.5 -138.5t-272 -47q-160 0 -290 47t-222.5 138.5t-142.5 222.5t-50 297zM297 588q0 -121 39 -215t106.5 -158.5t157.5 -97.5t195 -33 q104 0 194 33t157.5 97.5t106.5 158.5t39 215t-39 215t-106.5 158.5t-157.5 97.5t-194 33t-194.5 -33t-158 -97.5t-106.5 -158.5t-39 -215zM438 588q0 193 96.5 295t256.5 102q72 0 114.5 -13.5t95.5 -35.5l-4 2l56 -18l-80 -191q-59 29 -100.5 40t-63.5 11q-63 0 -103 -42 t-40 -150q0 -188 157 -193q82 0 172 51l68 -186q-59 -33 -126 -51.5t-146 -18.5q-174 0 -263.5 106.5t-89.5 291.5z" />
<glyph unicode="&#xaa;" horiz-adv-x="790" d="M68 932q0 68 30.5 116t85 76.5t127 42t156.5 13.5q2 0 6 -1t8 -1v4q0 29 -15 42t-56 13q-72 0 -142.5 -19.5t-117.5 -46.5l-52 170q63 33 153.5 55.5t190.5 22.5q137 0 189.5 -59.5t52.5 -169.5q0 -39 -1 -76t-3 -72q-2 -31 -2 -60.5v-57.5q0 -45 5 -93.5t22 -109.5h-183 l-14 55q-29 -27 -75 -45t-111 -18q-117 0 -185.5 58t-68.5 161zM276 940q0 -45 66 -45q59 0 91 23.5t46 48.5v39h-41q-66 0 -114 -12.5t-48 -53.5z" />
<glyph unicode="&#xab;" horiz-adv-x="978" d="M47 526l340 492l162 -127l-211 -311l-53 -50q12 -10 26.5 -20t26.5 -21l225 -303l-164 -129zM391 528l340 488l160 -127l-209 -309l-55 -50q12 -10 27.5 -20t27.5 -21l219 -299l-156 -131z" />
<glyph unicode="&#xac;" horiz-adv-x="1034" d="M59 606v213h879v-440h-211v227h-668z" />
<glyph unicode="&#xad;" horiz-adv-x="737" d="M88 475v217h535v-217h-535z" />
<glyph unicode="&#xae;" horiz-adv-x="1433" d="M150 893q0 131 43 231.5t116.5 169t172 104.5t208.5 36q113 0 211 -36t172 -104.5t116 -169t42 -231.5t-43 -231.5t-117 -169t-172 -104.5t-209 -36q-113 0 -211 36t-172 104.5t-115.5 169t-41.5 231.5zM346 893q0 -90 27.5 -155.5t74 -109.5t108.5 -65.5t134 -21.5 q74 0 137.5 21.5t109.5 64.5t72.5 109.5t26.5 156.5q0 88 -27.5 154.5t-74.5 110.5t-109.5 65.5t-134.5 21.5q-74 0 -137.5 -21.5t-109.5 -65.5t-71.5 -110.5t-25.5 -154.5zM457 610v555q49 16 112.5 23.5t114.5 7.5q47 0 89 -10t74 -31.5t50 -56.5t18 -86q0 -53 -22.5 -88 t-61.5 -56l179 -258h-207l-141 201q-10 4 -10.5 5t-20.5 7v-213h-174zM631 969h26q78 0 78 39q1 28 -71 28q-10 0 -14.5 1t-6.5 1h-4t-8 -2v-67z" />
<glyph unicode="&#xaf;" horiz-adv-x="851" d="M92 1102v192h637v-192h-637z" />
<glyph unicode="&#xb0;" horiz-adv-x="870" d="M141 1120q0 68 23.5 124t65.5 96t97.5 62.5t118.5 22.5t119 -20.5t96.5 -60t65.5 -96t25 -128.5t-25 -128t-65.5 -95t-96 -60.5t-119.5 -21.5q-63 0 -118.5 21.5t-97.5 60.5t-65.5 95t-23.5 128zM336 1120q0 -53 33.5 -83.5t76.5 -30.5q41 0 75 30.5t34 83.5t-34 85 t-75 32q-43 0 -76.5 -32t-33.5 -85z" />
<glyph unicode="&#xb1;" horiz-adv-x="1034" d="M57 338v213h879v-213h-879zM57 801v211h334v342h213v-342h332v-211h-332v-230h-213v230h-334z" />
<glyph unicode="&#xb2;" horiz-adv-x="806" d="M68 793v118q43 37 108.5 96.5t125.5 128t103.5 139.5t43.5 128q0 41 -26 60.5t-67 19.5q-43 0 -99 -24.5t-103 -55.5l-70 180q68 45 145.5 70.5t149.5 25.5q139 0 208.5 -68.5t69.5 -191.5q0 -119 -67.5 -222t-165.5 -208h272v-196h-628z" />
<glyph unicode="&#xb3;" horiz-adv-x="808" d="M96 829l49 193q49 -23 97.5 -37t93.5 -14q150 0 149 102q0 45 -33.5 73t-111.5 28h-143v94l174 209h-265v188h562v-113l-187 -221q98 -16 155.5 -84.5t57.5 -173.5q0 -133 -94 -213t-254 -80q-72 0 -134 16.5t-116 32.5z" />
<glyph unicode="&#xb4;" horiz-adv-x="548" d="M68 1083l141 359h233v-92l-211 -267h-163z" />
<glyph unicode="&#xb6;" horiz-adv-x="1011" d="M49 997q0 78 24.5 151t70.5 130t114 91t154 34h123v-1649h-205v838q-61 8 -112.5 46t-89.5 93t-58.5 124t-20.5 142zM625 -246v1649h204v-1649h-204z" />
<glyph unicode="&#xb7;" horiz-adv-x="546" d="M119 637q0 70 40 108q40 39 105 39q70 0 110 -39t40 -108q0 -66 -40 -107t-110 -41q-66 0 -105 41q-40 41 -40 107z" />
<glyph unicode="&#xb8;" horiz-adv-x="587" d="M78 -166l129 242h194l-53 -92q131 -41 131 -170q0 -96 -72.5 -152.5t-197.5 -56.5q-27 0 -56.5 3t-70.5 11l22 164q2 0 26 -1t26 -1q8 -4 17 -3t32 -1q29 -4 44 2t13 12q4 27 -184 43z" />
<glyph unicode="&#xb9;" horiz-adv-x="806" d="M66 1460l327 219h129v-694h180v-192h-589v192h202v416l-161 -98z" />
<glyph unicode="&#xba;" horiz-adv-x="815" d="M61 1065q0 94 26 162.5t70 112.5t104.5 64.5t131.5 20.5q70 0 130.5 -18t105.5 -61t70.5 -112t25.5 -169q0 -98 -25.5 -167t-70.5 -112t-105.5 -62t-130.5 -19q-72 0 -132 19t-104 62t-70 112t-26 167zM276 1065q0 -94 31 -134t86 -40q53 0 84 37t31 137q0 102 -31 139 t-84 37q-55 0 -86 -37t-31 -139z" />
<glyph unicode="&#xbb;" horiz-adv-x="978" d="M41 885l156 131l354 -467l-342 -490l-158 127l207 310l57 49q-14 10 -28.5 20t-28.5 21zM383 887l156 133l356 -471l-340 -492l-162 127l211 312l55 49q-14 10 -28.5 20t-26.5 21z" />
<glyph unicode="&#xbc;" horiz-adv-x="1714" d="M61 1198l330 219h131v-887h-209v609l-163 -99zM311 74l967 1368l162 -107l-969 -1374zM881 197v122l448 596h141v-530h158v-188h-158v-183h-202v183h-387zM1059 375q23 2 47 5t47 5h8l-8 -14l-68 -62zM1161 385h107v141zM1268 526v64l8 94l72 -16q-10 -23 -22.5 -47.5 t-22.5 -47.5z" />
<glyph unicode="&#xbd;" horiz-adv-x="1740" d="M61 1198l330 219h131v-887h-209v609l-163 -99zM311 74l967 1368l162 -107l-969 -1374zM1032 14v119q43 37 108.5 96.5t126 128t103.5 139t43 128.5q0 41 -25.5 60.5t-66.5 19.5q-43 0 -99.5 -25t-103.5 -55l-69 180q68 45 145.5 70.5t148.5 25.5q139 0 209 -68.5 t70 -191.5q0 -119 -67.5 -222.5t-165.5 -207.5h272v-197h-629z" />
<glyph unicode="&#xbe;" horiz-adv-x="1794" d="M115 625l49 192q49 -23 97 -37t93 -14q150 0 150 102q0 45 -34 73t-112 28h-143v94l174 209h-264v188h561v-112l-186 -222q98 -16 155.5 -84.5t57.5 -173.5q0 -133 -94.5 -213t-253.5 -80q-72 0 -134.5 16.5t-115.5 33.5zM391 74l967 1368l162 -107l-969 -1374zM961 197 v122l448 596h141v-530h158v-188h-158v-183h-202v183h-387zM1139 375q23 2 47 5t47 5h8l-8 -14l-68 -62zM1241 385h107v141zM1348 526v64l8 94l71 -16q-10 -23 -22 -47.5t-23 -47.5z" />
<glyph unicode="&#xbf;" horiz-adv-x="892" d="M49 -55q0 72 16.5 128t42 103t59.5 86t71 78q29 33 57.5 65.5t51 73.5t35.5 91.5t13 117.5h199q4 -29 4 -47v-33q0 -68 -15.5 -123t-41 -101t-58 -85t-65.5 -76q-47 -55 -91 -117.5t-44 -140.5q0 -70 41 -114t139 -44q61 0 136 28t138 69l84 -189q-90 -55 -181 -85.5 t-216 -30.5q-92 0 -163 26.5t-118 73.5t-70.5 109.5t-23.5 136.5zM340 899q0 68 40 108t107 40q68 0 109 -40t41 -108t-41 -107.5t-109 -39.5t-107.5 39.5t-39.5 107.5z" />
<glyph unicode="&#xc0;" horiz-adv-x="1198" d="M-25 0l547 1464l125 -12l543 -1452h-252l-139 377h-445q-31 -92 -67.5 -190.5t-69.5 -186.5h-242zM244 1626v100h270l299 -301h-242zM432 592h289q-33 88 -65.5 181t-65.5 179l-12 35q-4 -10 -7.5 -18t-5.5 -19z" />
<glyph unicode="&#xc1;" horiz-adv-x="1198" d="M-25 0l547 1464l125 -12l543 -1452h-252l-139 377h-445q-31 -92 -67.5 -190.5t-69.5 -186.5h-242zM348 1425l299 301h271v-100l-338 -201h-232zM432 592h289q-33 88 -65.5 181t-65.5 179l-12 35q-4 -10 -7.5 -18t-5.5 -19z" />
<glyph unicode="&#xc2;" horiz-adv-x="1198" d="M-25 0l547 1464l125 -12l543 -1452h-252l-139 377h-445q-31 -92 -67.5 -190.5t-69.5 -186.5h-242zM240 1417v99l276 210h143l265 -213v-96h-205l-131 107l-4 6l-2 -4l-142 -109h-200zM432 592h289q-33 88 -65.5 181t-65.5 179l-12 35q-4 -10 -7.5 -18t-5.5 -19z" />
<glyph unicode="&#xc3;" horiz-adv-x="1198" d="M-25 0l547 1464l125 -12l543 -1452h-252l-139 377h-445q-31 -92 -67.5 -190.5t-69.5 -186.5h-242zM238 1532q78 82 138 109.5t113 27.5q41 0 81 -11t75 -26q29 -10 54.5 -18t45.5 -8q31 0 105 61l84 -149q-68 -63 -125 -88t-104 -25q-41 0 -78 10t-72 25q-29 10 -55.5 19 t-48.5 9q-23 0 -52.5 -17t-76.5 -62zM432 592h289q-33 88 -65.5 181t-65.5 179l-12 35q-4 -10 -7.5 -18t-5.5 -19z" />
<glyph unicode="&#xc4;" horiz-adv-x="1198" d="M-25 0l547 1464l125 -12l543 -1452h-252l-139 377h-445q-31 -92 -67.5 -190.5t-69.5 -186.5h-242zM264 1544q0 57 39 92t100 35t99.5 -34.5t38.5 -92.5q0 -55 -38 -90t-100 -35q-61 0 -100 35t-39 90zM432 592h289q-33 88 -65.5 181t-65.5 179l-12 35q-4 -10 -7.5 -18 t-5.5 -19zM629 1544q0 57 36.5 92t98.5 35q63 0 102 -34.5t39 -92.5q0 -55 -39 -90t-102 -35q-61 0 -98 35t-37 90z" />
<glyph unicode="&#xc5;" horiz-adv-x="1198" d="M-25 0l500 1341q-68 23 -100.5 70t-32.5 115q0 90 57.5 147.5t184.5 57.5q117 0 180 -51.5t63 -153.5q0 -66 -34.5 -114t-104.5 -71q123 -326 253 -671.5t249 -669.5h-252l-139 377h-445q-31 -92 -67.5 -190.5t-69.5 -186.5h-242zM432 592h289q-33 90 -62.5 174 t-64.5 176l-16 66q-4 -16 -6.5 -27.5t-4.5 -28.5zM537 1526q0 -39 47 -39q49 0 49 39q0 43 -49 43q-47 0 -47 -43z" />
<glyph unicode="&#xc6;" horiz-adv-x="1732" d="M-90 0l850 1434h803v-222h-578v-366h528v-219h-528v-406h588v-221h-825v383h-353q-53 -92 -110.5 -191.5t-108.5 -191.5h-266zM520 596h228v389zM748 985v215l34 -35l33 25q-35 -100 -65 -203z" />
<glyph unicode="&#xc7;" horiz-adv-x="1169" d="M86 717q0 199 55.5 339t144.5 229t201.5 130t227.5 41q121 0 205 -16.5t153 -44.5l-57 -219q-63 29 -136 45t-155 16q-72 0 -142.5 -27.5t-126 -89t-89 -161t-33.5 -242.5q0 -129 31.5 -227.5t88 -163t132.5 -97t164 -32.5q82 0 153.5 23.5t130.5 58.5l60 -199 q-63 -47 -138 -69.5t-159 -28.5q127 -45 127 -172q0 -92 -72 -152.5t-205 -60.5q-23 0 -54.5 3t-78.5 13l35 149q35 -4 48 -5t21 -1q57 0 70.5 12.5t13.5 24.5q0 16 -190 39l82 154q-111 16 -204 68t-160.5 142.5t-105.5 219.5t-38 301z" />
<glyph unicode="&#xc8;" horiz-adv-x="1097" d="M141 0v1434h815v-222h-577v-366h520v-219h-520v-406h588v-221h-826zM160 1626v100h270l299 -301h-242z" />
<glyph unicode="&#xc9;" horiz-adv-x="1097" d="M141 0v1434h815v-222h-577v-366h520v-219h-520v-406h588v-221h-826zM346 1425l299 301h270v-100l-337 -201h-232z" />
<glyph unicode="&#xca;" horiz-adv-x="1097" d="M141 0v1434h815v-222h-577v-366h520v-219h-520v-406h588v-221h-826zM193 1417v99l276 210h143l265 -213v-96h-205l-131 107l-4 6l-2 -4l-142 -109h-200z" />
<glyph unicode="&#xcb;" horiz-adv-x="1097" d="M141 0v1434h815v-222h-577v-366h520v-219h-520v-406h588v-221h-826zM215 1544q0 57 39 92t100 35t99.5 -34.5t38.5 -92.5q0 -55 -38 -90t-100 -35q-61 0 -100 35t-39 90zM580 1544q0 57 36.5 92t98.5 35q63 0 102 -34.5t39 -92.5q0 -55 -39 -90t-102 -35q-61 0 -98 35 t-37 90z" />
<glyph unicode="&#xcc;" horiz-adv-x="595" d="M-106 1626v100h270l299 -301h-242zM170 0v1434h240v-1434h-240z" />
<glyph unicode="&#xcd;" horiz-adv-x="595" d="M39 1425l299 301h270v-100l-338 -201h-231zM170 0v1434h240v-1434h-240z" />
<glyph unicode="&#xce;" horiz-adv-x="595" d="M-59 1417v99l276 210h143l265 -213v-96h-205l-131 107l-4 6l-2 -4l-142 -109h-200zM170 0v1434h240v-1434h-240z" />
<glyph unicode="&#xcf;" horiz-adv-x="595" d="M-33 1544q0 57 39 92t100 35t99.5 -34.5t38.5 -92.5q0 -55 -38 -90t-100 -35q-61 0 -100 35t-39 90zM170 0v1434h240v-1434h-240zM332 1544q0 57 37 92t98 35q63 0 102 -34.5t39 -92.5q0 -55 -39 -90t-102 -35q-61 0 -98 35t-37 90z" />
<glyph unicode="&#xd0;" horiz-adv-x="1347" d="M-25 643v195h175v589q102 16 211.5 19.5t189.5 3.5q172 0 299 -53.5t209 -148.5t122 -228t40 -293q0 -145 -38 -279.5t-120 -238t-213 -165.5t-318 -62q-31 0 -85 1t-112.5 4t-109.5 7t-75 10v639h-175zM389 207q35 -4 83 -4h65q125 0 208.5 44t134 116.5t72 167 t21.5 196.5q0 88 -19.5 177t-67.5 161t-128 118t-203 46q-39 0 -85 -1t-81 -5v-385h285v-195h-285v-436z" />
<glyph unicode="&#xd1;" horiz-adv-x="1378" d="M145 0v1454h144l663 -924l17 -28v6v926h227v-1454h-143l-664 933l-18 31q0 -4 1 -7t1 -7v-930h-228zM328 1532q78 82 138 109.5t114 27.5q41 0 80.5 -11t74.5 -26q29 -10 54.5 -18t46.5 -8q31 0 104 61l84 -149q-68 -63 -125 -88t-104 -25q-41 0 -78 10t-72 25 q-29 10 -55.5 19t-48.5 9q-23 0 -52.5 -17t-76.5 -62z" />
<glyph unicode="&#xd2;" horiz-adv-x="1400" d="M88 717q0 360 152.5 549.5t439.5 189.5q154 0 265.5 -53t184 -149.5t108.5 -232.5t36 -304q0 -360 -153.5 -550t-440.5 -190q-152 0 -263.5 52.5t-184 149.5t-108.5 233.5t-36 304.5zM332 1626v100h270l299 -301h-242zM336 717q0 -104 20.5 -198.5t62.5 -166 t106.5 -113.5t154.5 -42q164 0 255 127t91 393q0 102 -20.5 196.5t-62.5 166t-107.5 114.5t-155.5 43q-162 0 -253 -127t-91 -393z" />
<glyph unicode="&#xd3;" horiz-adv-x="1400" d="M88 717q0 360 152.5 549.5t439.5 189.5q154 0 265.5 -53t184 -149.5t108.5 -232.5t36 -304q0 -360 -153.5 -550t-440.5 -190q-152 0 -263.5 52.5t-184 149.5t-108.5 233.5t-36 304.5zM336 717q0 -104 20.5 -198.5t62.5 -166t106.5 -113.5t154.5 -42q164 0 255 127t91 393 q0 102 -20.5 196.5t-62.5 166t-107.5 114.5t-155.5 43q-162 0 -253 -127t-91 -393zM520 1425l299 301h271v-100l-338 -201h-232z" />
<glyph unicode="&#xd4;" horiz-adv-x="1400" d="M88 717q0 360 152.5 549.5t439.5 189.5q154 0 265.5 -53t184 -149.5t108.5 -232.5t36 -304q0 -360 -153.5 -550t-440.5 -190q-152 0 -263.5 52.5t-184 149.5t-108.5 233.5t-36 304.5zM336 717q0 -104 20.5 -198.5t62.5 -166t106.5 -113.5t154.5 -42q164 0 255 127t91 393 q0 102 -20.5 196.5t-62.5 166t-107.5 114.5t-155.5 43q-162 0 -253 -127t-91 -393zM336 1417v99l276 210h144l264 -213v-96h-205l-131 107l-4 6l-2 -4l-141 -109h-201z" />
<glyph unicode="&#xd5;" horiz-adv-x="1400" d="M88 717q0 360 152.5 549.5t439.5 189.5q154 0 265.5 -53t184 -149.5t108.5 -232.5t36 -304q0 -360 -153.5 -550t-440.5 -190q-152 0 -263.5 52.5t-184 149.5t-108.5 233.5t-36 304.5zM334 1532q78 82 138 109.5t114 27.5q41 0 81 -11t74 -26q29 -10 54.5 -18t46.5 -8 q31 0 104 61l84 -149q-68 -63 -125 -88t-104 -25q-41 0 -78 10t-72 25q-29 10 -55.5 19t-48.5 9q-23 0 -52.5 -17t-76.5 -62zM336 717q0 -104 20.5 -198.5t62.5 -166t106.5 -113.5t154.5 -42q164 0 255 127t91 393q0 102 -20.5 196.5t-62.5 166t-107.5 114.5t-155.5 43 q-162 0 -253 -127t-91 -393z" />
<glyph unicode="&#xd6;" horiz-adv-x="1400" d="M88 717q0 360 152.5 549.5t439.5 189.5q154 0 265.5 -53t184 -149.5t108.5 -232.5t36 -304q0 -360 -153.5 -550t-440.5 -190q-152 0 -263.5 52.5t-184 149.5t-108.5 233.5t-36 304.5zM336 717q0 -104 20.5 -198.5t62.5 -166t106.5 -113.5t154.5 -42q164 0 255 127t91 393 q0 102 -20.5 196.5t-62.5 166t-107.5 114.5t-155.5 43q-162 0 -253 -127t-91 -393zM358 1544q0 57 39 92t101 35q61 0 99 -34.5t38 -92.5q0 -55 -38 -90t-99 -35t-100.5 35t-39.5 90zM723 1544q0 57 37 92t98 35q63 0 102 -34.5t39 -92.5q0 -55 -38.5 -90t-102.5 -35 q-61 0 -98 35t-37 90z" />
<glyph unicode="&#xd7;" horiz-adv-x="1034" d="M106 436l242 242q-57 59 -120.5 122.5t-116.5 117.5l149 153l240 -240l239 240l150 -153l-238 -240q57 -57 121 -121.5t117 -118.5l-150 -151l-239 241q-57 -59 -123 -123.5t-119 -117.5z" />
<glyph unicode="&#xd8;" horiz-adv-x="1400" d="M88 717q0 360 152.5 549.5t439.5 189.5q205 0 338 -98q23 29 44 60.5t36 54.5l166 -109l-107 -154q59 -96 88 -220t29 -273q0 -360 -153.5 -550t-440.5 -190q-98 0 -181 25t-151 68q-18 -27 -37.5 -58.5t-36.5 -50.5l-161 115l96 139q-66 98 -93.5 222t-27.5 280z M336 717q0 -152 39 -268q68 94 129 182t122.5 174t123 174t129.5 184q-78 74 -199 74q-162 0 -253 -127t-91 -393zM487 268q37 -33 85.5 -52t107.5 -19q164 0 255 127t91 393q0 68 -9 135.5t-28 124.5q-68 -96 -129 -182t-121.5 -172t-122 -173.5t-129.5 -181.5z" />
<glyph unicode="&#xd9;" horiz-adv-x="1335" d="M143 459v975h240v-899q0 -182 70.5 -257t216.5 -75q137 0 195.5 76.5t58.5 255.5v899h231v-945q0 -133 -35 -229t-99.5 -157.5t-153.5 -91t-199 -29.5q-524 0 -525 477zM326 1626v100h270l299 -301h-242z" />
<glyph unicode="&#xda;" horiz-adv-x="1335" d="M143 459v975h240v-899q0 -182 70.5 -257t216.5 -75q137 0 195.5 76.5t58.5 255.5v899h231v-945q0 -133 -35 -229t-99.5 -157.5t-153.5 -91t-199 -29.5q-524 0 -525 477zM469 1425l299 301h270v-100l-338 -201h-231z" />
<glyph unicode="&#xdb;" horiz-adv-x="1335" d="M143 459v975h240v-899q0 -182 70.5 -257t216.5 -75q137 0 195.5 76.5t58.5 255.5v899h231v-945q0 -133 -35 -229t-99.5 -157.5t-153.5 -91t-199 -29.5q-524 0 -525 477zM313 1417v99l277 210h143l264 -213v-96h-204l-131 107l-5 6l-2 -4l-141 -109h-201z" />
<glyph unicode="&#xdc;" horiz-adv-x="1335" d="M143 459v975h240v-899q0 -182 70.5 -257t216.5 -75q137 0 195.5 76.5t58.5 255.5v899h231v-945q0 -133 -35 -229t-99.5 -157.5t-153.5 -91t-199 -29.5q-524 0 -525 477zM334 1544q0 57 39 92t100 35t99 -34.5t38 -92.5q0 -55 -37.5 -90t-99.5 -35q-61 0 -100 35t-39 90z M698 1544q0 57 37 92t99 35q63 0 102 -34.5t39 -92.5q0 -55 -39 -90t-102 -35q-61 0 -98.5 35t-37.5 90z" />
<glyph unicode="&#xdd;" horiz-adv-x="1142" d="M-37 1434h281l325 -662q78 160 160 332t156 330h264l-471 -867v-567h-238v563q-55 100 -116.5 212t-123 224.5t-122 223t-115.5 211.5zM397 1425l299 301h271v-100l-338 -201h-232z" />
<glyph unicode="&#xde;" horiz-adv-x="1144" d="M143 0v1628h238v-336q33 2 64.5 2h62.5q96 0 195.5 -19.5t180.5 -70.5t132 -139t51 -225q0 -135 -48 -228.5t-127 -151t-180.5 -83t-209.5 -25.5q-23 0 -61 -1t-60 3v-354h-238zM381 575q23 -2 52.5 -2h47.5h13q59 0 117.5 11.5t104.5 40t74.5 81t28.5 134.5 q0 68 -27.5 113.5t-70.5 73.5t-98.5 39t-110.5 11h-71.5t-59.5 -4v-498z" />
<glyph unicode="&#xdf;" horiz-adv-x="1212" d="M25 815v209h149v6q0 203 99.5 294t277.5 91q86 0 157.5 -22.5t123 -64.5t80 -100.5t28.5 -127.5q0 -47 -13.5 -82t-35 -62.5t-48 -50t-52.5 -43.5q-33 -23 -56.5 -47t-23.5 -55q0 -35 35.5 -53.5t84.5 -40.5l-2 2q45 -18 93.5 -40t87.5 -59t63.5 -92t24.5 -137 q0 -68 -24.5 -132.5t-74 -115.5t-120 -83t-162.5 -32q-90 0 -152.5 16.5t-132.5 57.5l70 205q20 -14 36.5 -25.5t18.5 -11.5q33 -16 60.5 -24.5t87.5 -8.5q66 0 114.5 41t48.5 107q0 59 -48 91t-105 54q-39 16 -80 38t-75 53.5t-55.5 75.5t-21.5 106q0 47 13.5 82.5t34 63.5 t47 50.5t53.5 42.5q33 25 57.5 50.5t24.5 56.5q0 25 -14.5 44t-38 33.5t-51 22.5t-52.5 8q-86 0 -121 -48t-35 -175v-983h-227v815h-149z" />
<glyph unicode="&#xe0;" horiz-adv-x="1015" d="M29 293q0 98 71 194q80 102 209 117q59 8 122 12q62 4 130 5h21q10 0 15 1t9 1h9t16 -2q2 16 2 30v29q0 84 -33 118t-123 33q-31 0 -68 -6q-38 -6 -79 -16t-80 -26q-39 -15 -72 -33l-76 182q92 55 199 81q106 26 217 25q111 0 177 -30q67 -31 103 -78t47 -106 q11 -58 11 -115q0 -59 -1 -118q-1 -58 -3 -116q-2 -47 -4 -97t-2 -95q0 -66 6 -142q0 -47 86 -75l-10 -70h-234l-30 98q-33 -33 -78 -59q-39 -20 -105 -35q-66 -14 -131 -14q-68 0 -127 21q-59 22 -102 62t-68 96t-24 128zM260 1350v92h244l155 -359h-159zM262 307 q0 -49 36 -82q36 -32 93 -32q47 0 96 12t76 31q23 16 38 37q15 22 26 38v115q-18 2 -35 2h-35q-84 0 -170 -6q-35 -2 -59 -13q-25 -11 -39 -28q-27 -39 -27 -74z" />
<glyph unicode="&#xe1;" horiz-adv-x="1015" d="M29 293q0 98 71 194q80 102 209 117q59 8 122 12q62 4 130 5h21q10 0 15 1t9 1h9t16 -2q2 16 2 30v29q0 84 -33 118t-123 33q-31 0 -68 -6q-38 -6 -79 -16t-80 -26q-39 -15 -72 -33l-76 182q92 55 199 81q106 26 217 25q111 0 177 -30q67 -31 103 -78t47 -106 q11 -58 11 -115q0 -59 -1 -118q-1 -58 -3 -116q-2 -47 -4 -97t-2 -95q0 -66 6 -142q0 -47 86 -75l-10 -70h-234l-30 98q-33 -33 -78 -59q-39 -20 -105 -35q-66 -14 -131 -14q-68 0 -127 21q-59 22 -102 62t-68 96t-24 128zM262 307q0 -49 36 -82q36 -32 93 -32q47 0 96 12 t76 31q23 16 38 37q15 22 26 38v115q-18 2 -35 2h-35q-84 0 -170 -6q-35 -2 -59 -13q-25 -11 -39 -28q-27 -39 -27 -74zM311 1083l142 359h233v-92l-211 -267h-164z" />
<glyph unicode="&#xe2;" horiz-adv-x="1015" d="M29 293q0 98 71 194q80 102 209 117q59 8 122 12q62 4 130 5h21q10 0 15 1t9 1h9t16 -2q2 16 2 30v29q0 84 -33 118t-123 33q-31 0 -68 -6q-38 -6 -79 -16t-80 -26q-39 -15 -72 -33l-76 182q92 55 199 81q106 26 217 25q111 0 177 -30q67 -31 103 -78t47 -106 q11 -58 11 -115q0 -59 -1 -118q-1 -58 -3 -116q-2 -47 -4 -97t-2 -95q0 -66 6 -142q0 -47 86 -75l-10 -70h-234l-30 98q-33 -33 -78 -59q-39 -20 -105 -35q-66 -14 -131 -14q-68 0 -127 21q-59 22 -102 62t-68 96t-24 128zM170 1042l285 422h102l256 -422h-223l-88 148 l-6 16l-7 -16l-98 -148h-221zM262 307q0 -49 36 -82q36 -32 93 -32q47 0 96 12t76 31q23 16 38 37q15 22 26 38v115q-18 2 -35 2h-35q-84 0 -170 -6q-35 -2 -59 -13q-25 -11 -39 -28q-27 -39 -27 -74z" />
<glyph unicode="&#xe3;" horiz-adv-x="1015" d="M29 293q0 98 71 194q80 102 209 117q59 8 122 12q62 4 130 5h21q10 0 15 1t9 1h9t16 -2q2 16 2 30v29q0 84 -33 118t-123 33q-31 0 -68 -6q-38 -6 -79 -16t-80 -26q-39 -15 -72 -33l-76 182q92 55 199 81q106 26 217 25q111 0 177 -30q67 -31 103 -78t47 -106 q11 -58 11 -115q0 -59 -1 -118q-1 -58 -3 -116q-2 -47 -4 -97t-2 -95q0 -66 6 -142q0 -47 86 -75l-10 -70h-234l-30 98q-33 -33 -78 -59q-39 -20 -105 -35q-66 -14 -131 -14q-68 0 -127 21q-59 22 -102 62t-68 96t-24 128zM184 1288q72 80 127 111t103 31q41 0 72 -16 q32 -15 63 -32l-2 2q23 -10 42 -20t36 -10q29 0 96 67l82 -147q-66 -74 -117 -100q-51 -27 -92 -27q-39 0 -71 14t-60 31q-23 12 -42 21t-40 10q-16 0 -43 -19q-27 -18 -74 -65zM262 307q0 -49 36 -82q36 -32 93 -32q47 0 96 12t76 31q23 16 38 37q15 22 26 38v115 q-18 2 -35 2h-35q-84 0 -170 -6q-35 -2 -59 -13q-25 -11 -39 -28q-27 -39 -27 -74z" />
<glyph unicode="&#xe4;" horiz-adv-x="1015" d="M29 293q0 98 71 194q80 102 209 117q59 8 122 12q62 4 130 5h21q10 0 15 1t9 1h9t16 -2q2 16 2 30v29q0 84 -33 118t-123 33q-31 0 -68 -6q-38 -6 -79 -16t-80 -26q-39 -15 -72 -33l-76 182q92 55 199 81q106 26 217 25q111 0 177 -30q67 -31 103 -78t47 -106 q11 -58 11 -115q0 -59 -1 -118q-1 -58 -3 -116q-2 -47 -4 -97t-2 -95q0 -66 6 -142q0 -47 86 -75l-10 -70h-234l-30 98q-33 -33 -78 -59q-39 -20 -105 -35q-66 -14 -131 -14q-68 0 -127 21q-59 22 -102 62t-68 96t-24 128zM184 1276q0 61 36 98t95 37q57 0 94 -37 q36 -37 35 -98q0 -55 -35 -93q-36 -38 -94 -38q-59 0 -95 38t-36 93zM262 307q0 -49 36 -82q36 -32 93 -32q47 0 96 12t76 31q23 16 38 37q15 22 26 38v115q-18 2 -35 2h-35q-84 0 -170 -6q-35 -2 -59 -13q-25 -11 -39 -28q-27 -39 -27 -74zM547 1276q0 61 36 98t95 37 q61 0 97 -37t36 -98q0 -55 -36 -93t-97 -38q-59 0 -95 38t-36 93z" />
<glyph unicode="&#xe5;" horiz-adv-x="1015" d="M29 293q0 98 71 194q80 102 209 117q59 8 122 12.5t130 4.5h21q10 0 15 1t9 1h9.5t15.5 -2q2 16 2 30.5v28.5q0 84 -33 117.5t-123 33.5q-31 0 -68.5 -6t-78.5 -16t-80 -25.5t-72 -33.5l-76 182q92 55 199 80.5t217 25.5q111 0 177.5 -30.5t102.5 -77.5t47 -105.5 t11 -115.5q0 -59 -1 -118t-3 -116q-2 -47 -4 -97t-2 -95q0 -66 6 -142q0 -47 86 -75l-10 -70h-234l-30 98q-33 -33 -78 -59q-39 -20 -104.5 -34.5t-131.5 -14.5q-68 0 -127 21.5t-102 61.5t-67.5 96t-24.5 128zM262 307q0 -49 36 -81.5t93 -32.5q47 0 96.5 12t75.5 31 q23 16 38 37.5t26 37.5v115q-18 2 -35 2h-35q-84 0 -170 -6q-35 -2 -59.5 -13.5t-38.5 -27.5q-27 -39 -27 -74zM276 1257q0 98 59.5 154.5t162.5 56.5q96 0 159.5 -50t63.5 -161q0 -92 -63.5 -150t-159.5 -58q-98 0 -160 54t-62 154zM455 1257q0 -20 13 -30t30 -10 q45 0 45 40q0 23 -13.5 33t-31.5 10q-16 0 -29.5 -9t-13.5 -34z" />
<glyph unicode="&#xe6;" horiz-adv-x="1630" d="M66 293q0 94 36.5 156.5t103 100.5t160 54.5t205.5 16.5h23q10 0 14 1t7 1h8.5t15.5 -2q0 4 2 4q2 16 3 30.5t1 24.5q0 84 -33.5 117.5t-122.5 33.5q-29 0 -66.5 -6t-78.5 -17t-82 -26.5t-74 -33.5l-75 184q92 55 199.5 80.5t215.5 25.5q90 0 157 -24.5t108 -71.5 q59 55 137 80t155 25q72 0 143.5 -15.5t128 -60.5t92.5 -127t36 -213q0 -33 -4 -76t-11 -96h-608q8 -129 70.5 -201t197.5 -72q59 0 127 30t111 67l94 -179q-76 -59 -173.5 -93t-201.5 -34q-113 0 -207 43t-151 121q-53 -63 -135 -109t-205 -46q-68 0 -127 21.5t-103 61.5 t-68.5 96t-24.5 128zM299 307q0 -49 37 -81.5t94 -32.5q88 0 140.5 40.5t68.5 81.5v111q-18 2 -34.5 2h-35.5q-53 0 -102 -5t-86 -18.5t-59.5 -37t-22.5 -60.5zM872 653h388q-4 100 -50.5 142.5t-122.5 42.5q-86 0 -142 -42t-73 -143zM1260 616v23v14h38z" />
<glyph unicode="&#xe7;" horiz-adv-x="923" d="M74 512q0 262 114.5 398.5t333.5 136.5q98 0 172 -18.5t144 -55.5l-68 -207q-59 33 -117.5 52.5t-115.5 19.5q-231 0 -232 -326q0 -63 12.5 -121.5t41 -103.5t75.5 -72t117 -27q61 0 119.5 26t105.5 62l80 -188q-59 -43 -121.5 -69.5t-130.5 -34.5v-2q131 -41 131 -168 q0 -92 -70.5 -150.5t-199.5 -58.5q-23 0 -53.5 3t-77.5 13l35 146q35 -4 47 -5.5t20 -1.5q57 0 69.5 13.5t12.5 23.5q0 18 -184 37l78 154q-92 14 -155.5 58t-104.5 111.5t-59.5 158t-18.5 196.5z" />
<glyph unicode="&#xe8;" horiz-adv-x="1040" d="M74 496q0 262 117 398q118 136 337 136q72 0 144 -15t128 -61q56 -45 92 -125t36 -211q0 -31 -4 -73q-4 -43 -13 -103h-600q2 -14 5 -32t8 -39q14 -80 47 -121q61 -78 204 -78q29 0 62 8t64 22q32 13 61 31t49 37l94 -180q-74 -59 -172 -93t-203 -34q-117 0 -203 40 q-87 40 -145 112q-53 72 -84 200q-25 119 -24 181zM311 1350v92h244l156 -359h-160zM315 637h387q-8 102 -52 143t-120 41q-86 0 -141 -42t-74 -142z" />
<glyph unicode="&#xe9;" horiz-adv-x="1040" d="M74 496q0 262 117 398q118 136 337 136q72 0 144 -15t128 -61q56 -45 92 -125t36 -211q0 -31 -4 -73q-4 -43 -13 -103h-600q2 -14 5 -32t8 -39q14 -80 47 -121q61 -78 204 -78q29 0 62 8t64 22q32 13 61 31t49 37l94 -180q-74 -59 -172 -93t-203 -34q-117 0 -203 40 q-87 40 -145 112q-53 72 -84 200q-25 119 -24 181zM315 637h387q-8 102 -52 143t-120 41q-86 0 -141 -42t-74 -142zM420 1083l141 359h234v-92l-211 -267h-164z" />
<glyph unicode="&#xea;" horiz-adv-x="1040" d="M74 496q0 262 117 398q118 136 337 136q72 0 144 -15t128 -61q56 -45 92 -125t36 -211q0 -31 -4 -73q-4 -43 -13 -103h-600q2 -14 5 -32t8 -39q14 -80 47 -121q61 -78 204 -78q29 0 62 8t64 22q32 13 61 31t49 37l94 -180q-74 -59 -172 -93t-203 -34q-117 0 -203 40 q-87 40 -145 112q-53 72 -84 200q-25 119 -24 181zM182 1042l285 422h102l256 -422h-223l-88 148l-6 16l-6 -16l-99 -148h-221zM315 637h387q-8 102 -52 143t-120 41q-86 0 -141 -42t-74 -142z" />
<glyph unicode="&#xeb;" horiz-adv-x="1040" d="M74 496q0 262 117 398q118 136 337 136q72 0 144 -15t128 -61q56 -45 92 -125t36 -211q0 -31 -4 -73q-4 -43 -13 -103h-600q2 -14 5 -32t8 -39q14 -80 47 -121q61 -78 204 -78q29 0 62 8t64 22q32 13 61 31t49 37l94 -180q-74 -59 -172 -93t-203 -34q-117 0 -203 40 q-87 40 -145 112q-53 72 -84 200q-25 119 -24 181zM213 1276q0 61 36 98t95 37q57 0 93 -37t36 -98q0 -55 -36 -93t-93 -38q-59 0 -95 38t-36 93zM315 637h387q-8 102 -52 143t-120 41q-86 0 -141 -42t-74 -142zM575 1276q0 61 36 98t96 37q61 0 97 -37t36 -98 q0 -55 -36 -93t-97 -38q-59 0 -96 38q-36 38 -36 93z" />
<glyph unicode="&#xec;" horiz-adv-x="548" d="M-10 1350v92h243l156 -359h-160zM150 0v1024h229v-1024h-229z" />
<glyph unicode="&#xed;" horiz-adv-x="548" d="M139 1083l142 359h233v-92l-211 -267h-164zM150 0v1024h229v-1024h-229z" />
<glyph unicode="&#xee;" horiz-adv-x="548" d="M-70 1042l285 422h102l256 -422h-223l-88 148l-6 16l-6 -16l-98 -148h-222zM150 0v1024h229v-1024h-229z" />
<glyph unicode="&#xef;" horiz-adv-x="548" d="M-53 1276q0 61 35.5 98t95.5 37q57 0 93 -37t36 -98q0 -55 -36 -93t-93 -38q-59 0 -95 38t-36 93zM150 0v1024h229v-1024h-229zM309 1276q0 61 36 98t95 37q61 0 97 -37t36 -98q0 -55 -35.5 -93t-97.5 -38q-59 0 -95 38t-36 93z" />
<glyph unicode="&#xf0;" horiz-adv-x="1148" d="M90 514q0 96 24.5 185t74 159t121 117t165.5 61l-92 148l82 41q-27 10 -57.5 19t-63.5 20l111 174q39 -14 95 -39t116 -64q35 18 75.5 41t69.5 39l82 -151l-80 -47q45 -47 82 -105.5t64.5 -133.5t43 -168t15.5 -212q0 -164 -37 -281.5t-99.5 -192.5t-146.5 -111t-178 -36 q-127 0 -215 43t-144.5 116t-82 170t-25.5 208zM322 512q0 -166 68.5 -246t172.5 -80q49 0 91 22.5t73 71t48.5 124t17.5 184.5q0 37 -2.5 83t-6.5 74q-29 41 -92 63.5t-125 22.5q-66 0 -111.5 -24.5t-75.5 -67.5t-44 -101t-14 -126zM481 1036q37 6 72 6q41 0 81 -7t75 -19 q-18 29 -37.5 53t-42.5 47q-35 -18 -77 -40.5t-71 -39.5z" />
<glyph unicode="&#xf1;" horiz-adv-x="1120" d="M129 0v1024h207l2 -68q49 41 119 66t157 25q86 0 152 -20q66 -19 110 -70q44 -50 66 -134q23 -84 23 -213v-610h-228v578q0 131 -34 195q-34 65 -125 65q-86 0 -142 -43q-55 -43 -80 -113v-682h-227zM236 1288q72 80 126 111q55 31 103 31q41 0 73 -16q32 -15 62 -32 l-2 2q23 -10 42 -20t36 -10q29 0 96 67l82 -147q-66 -74 -117 -100q-51 -27 -92 -27q-39 0 -71 14t-60 31q-23 12 -42 21t-40 10q-16 0 -43 -19q-27 -18 -74 -65z" />
<glyph unicode="&#xf2;" horiz-adv-x="1097" d="M76 512q0 262 115 398q116 136 337 137q117 0 202 -38t141 -109t83 -169t27 -219q0 -262 -116 -398t-337 -137q-117 0 -201 38q-85 38 -142 109q-56 71 -83 169q-26 98 -26 219zM285 1350v92h243l156 -359h-160zM309 512q0 -66 12 -124q11 -58 37 -103q27 -45 69 -72 t101 -27q219 -2 220 326q0 66 -13 125q-12 59 -38 103t-67 71q-42 27 -102 27q-219 2 -219 -326z" />
<glyph unicode="&#xf3;" horiz-adv-x="1097" d="M76 512q0 262 115 398q116 136 337 137q117 0 202 -38t141 -109t83 -169t27 -219q0 -262 -116 -398t-337 -137q-117 0 -201 38q-85 38 -142 109q-56 71 -83 169q-26 98 -26 219zM309 512q0 -66 12 -124q11 -58 37 -103q27 -45 69 -72t101 -27q219 -2 220 326 q0 66 -13 125q-12 59 -38 103t-67 71q-42 27 -102 27q-219 2 -219 -326zM410 1083l141 359h233v-92l-211 -267h-163z" />
<glyph unicode="&#xf4;" horiz-adv-x="1097" d="M76 512q0 262 115 398q116 136 337 137q117 0 202 -38t141 -109t83 -169t27 -219q0 -262 -116 -398t-337 -137q-117 0 -201 38q-85 38 -142 109q-56 71 -83 169q-26 98 -26 219zM209 1042l285 422h102l256 -422h-223l-88 148l-6 16l-7 -16l-98 -148h-221zM309 512 q0 -66 12 -124q11 -58 37 -103q27 -45 69 -72t101 -27q219 -2 220 326q0 66 -13 125q-12 59 -38 103t-67 71q-42 27 -102 27q-219 2 -219 -326z" />
<glyph unicode="&#xf5;" horiz-adv-x="1097" d="M76 512q0 262 115 398q116 136 337 137q117 0 202 -38t141 -109t83 -169t27 -219q0 -262 -116 -398t-337 -137q-117 0 -201 38q-85 38 -142 109q-56 71 -83 169q-26 98 -26 219zM225 1288q72 80 127 111t103 31q41 0 72 -16q32 -15 63 -32l-2 2q23 -10 42 -20t36 -10 q29 0 96 67l82 -147q-66 -74 -117 -100q-51 -27 -92 -27q-39 0 -71 14t-60 31q-23 12 -42 21t-40 10q-16 0 -43 -19q-27 -18 -74 -65zM309 512q0 -66 12 -124q11 -58 37 -103q27 -45 69 -72t101 -27q219 -2 220 326q0 66 -13 125q-12 59 -38 103t-67 71q-42 27 -102 27 q-219 2 -219 -326z" />
<glyph unicode="&#xf6;" horiz-adv-x="1097" d="M76 512q0 262 115 398q116 136 337 137q117 0 202 -38t141 -109t83 -169t27 -219q0 -262 -116 -398t-337 -137q-117 0 -201 38q-85 38 -142 109q-56 71 -83 169q-26 98 -26 219zM223 1276q0 61 36 98t95 37q57 0 93 -37t36 -98q0 -55 -36 -93t-93 -38q-59 0 -95 38 t-36 93zM309 512q0 -66 12 -124q11 -58 37 -103q27 -45 69 -72t101 -27q219 -2 220 326q0 66 -13 125q-12 59 -38 103t-67 71q-42 27 -102 27q-219 2 -219 -326zM586 1276q0 61 36 98t95 37q61 0 97 -37t36 -98q0 -55 -36 -93t-97 -38q-59 0 -95 38t-36 93z" />
<glyph unicode="&#xf7;" horiz-adv-x="1034" d="M57 573v211h879v-211h-879zM348 322q0 70 40 109.5t108 39.5t108.5 -40t40.5 -109q0 -66 -41 -107t-108 -41q-68 0 -108 41t-40 107zM348 1034q0 68 40 108t108 40t108.5 -40t40.5 -108t-41 -108.5t-108 -40.5q-68 0 -108 40.5t-40 108.5z" />
<glyph unicode="&#xf8;" horiz-adv-x="1097" d="M76 512q0 262 115.5 398.5t336.5 136.5q66 0 120 -10.5t102 -37.5q16 18 29.5 38t21.5 30l155 -115l-59 -86q43 -66 63.5 -157t20.5 -197q0 -262 -115.5 -398.5t-337.5 -136.5q-70 0 -126 13.5t-107 42.5q-14 -18 -28.5 -41t-24.5 -33l-158 115l70 98q-41 68 -59.5 155 t-18.5 185zM309 512q0 -61 10 -119q78 111 152 209t154 213q-37 23 -97 23q-219 2 -219 -326zM422 215q20 -10 49 -19.5t57 -9.5q220 -2 220 326q0 37 -2.5 70.5t-10.5 66.5q-80 -113 -154.5 -215t-158.5 -219z" />
<glyph unicode="&#xf9;" horiz-adv-x="1103" d="M117 414v610h227v-578q0 -131 30 -195q30 -65 118 -65q84 0 137 51q53 50 80 121v666h227v-717q0 -35 1 -68q1 -34 3 -73q4 -29 36 -71t97 -95h-323l-7 92q-47 -51 -116 -83q-70 -32 -164 -32q-86 0 -151 20q-65 19 -107 70q-43 50 -66 134t-22 213zM266 1350v92h244 l156 -359h-160z" />
<glyph unicode="&#xfa;" horiz-adv-x="1103" d="M117 414v610h227v-578q0 -131 30 -195q30 -65 118 -65q84 0 137 51q53 50 80 121v666h227v-717q0 -35 1 -68q1 -34 3 -73q4 -29 36 -71t97 -95h-323l-7 92q-47 -51 -116 -83q-70 -32 -164 -32q-86 0 -151 20q-65 19 -107 70q-43 50 -66 134t-22 213zM408 1083l141 359 h233v-92l-211 -267h-163z" />
<glyph unicode="&#xfb;" horiz-adv-x="1103" d="M117 414v610h227v-578q0 -131 30 -195q30 -65 118 -65q84 0 137 51q53 50 80 121v666h227v-717q0 -35 1 -68q1 -34 3 -73q4 -29 36 -71t97 -95h-323l-7 92q-47 -51 -116 -83q-70 -32 -164 -32q-86 0 -151 20q-65 19 -107 70q-43 50 -66 134t-22 213zM213 1042l285 422 h102l256 -422h-223l-88 148l-6 16l-7 -16l-98 -148h-221z" />
<glyph unicode="&#xfc;" horiz-adv-x="1103" d="M117 414v610h227v-578q0 -131 30 -195q30 -65 118 -65q84 0 137 51q53 50 80 121v666h227v-717q0 -35 1 -68q1 -34 3 -73q4 -29 36 -71t97 -95h-323l-7 92q-47 -51 -116 -83q-70 -32 -164 -32q-86 0 -151 20q-65 19 -107 70q-43 50 -66 134t-22 213zM225 1276q0 61 36 98 t95 37q57 0 94 -37q36 -37 35 -98q0 -55 -35 -93q-36 -38 -94 -38q-59 0 -95 38t-36 93zM588 1276q0 61 36 98t95 37q61 0 97 -37t36 -98q0 -55 -36 -93t-97 -38q-59 0 -95 38t-36 93z" />
<glyph unicode="&#xfd;" horiz-adv-x="954" d="M-16 1024h258l256 -725q49 180 102 365q53 184 102 360h236l-299 -903q-33 -98 -66 -190q-33 -91 -73 -162q-41 -72 -96 -115q-54 -43 -128 -43q-84 0 -210 94l110 137q20 -6 36 -10q15 -4 26 -4q39 0 76 47q38 47 67 160q-94 236 -199 494q-104 259 -198 495zM391 1083 l141 359h234v-92l-211 -267h-164z" />
<glyph unicode="&#xfe;" horiz-adv-x="1107" d="M129 -379v1782h227v-426q41 35 96.5 52.5t127.5 17.5q207 0 310 -121t103 -396q0 -127 -33.5 -229t-96 -174t-150.5 -111t-195 -39q-53 0 -90 4.5t-72 14.5v-375h-227zM356 219q29 -16 64 -24.5t92 -8.5q115 0 181.5 87t66.5 259q0 139 -47 222.5t-162 83.5 q-76 2 -125 -42t-70 -130v-447z" />
<glyph unicode="&#xff;" horiz-adv-x="954" d="M-16 1024h258l256 -725q49 180 102 365q53 184 102 360h236l-299 -903q-33 -98 -66 -190q-33 -91 -73 -162q-41 -72 -96 -115q-54 -43 -128 -43q-84 0 -210 94l110 137q20 -6 36 -10q15 -4 26 -4q39 0 76 47q38 47 67 160q-94 236 -199 494q-104 259 -198 495zM152 1276 q0 61 35 98q36 37 96 37q57 0 93 -37t36 -98q0 -55 -36 -93t-93 -38q-59 0 -96 38q-35 38 -35 93zM514 1276q0 61 36 98t95 37q61 0 97 -37t36 -98q0 -55 -36 -93t-97 -38q-59 0 -95 38t-36 93z" />
<glyph unicode="&#x152;" horiz-adv-x="1908" d="M96 717q0 360 151.5 549.5t438.5 189.5q94 0 155.5 -6t121.5 -16h772v-222h-578v-366h529v-219h-529v-406h588v-221h-780q-100 -23 -279 -23q-152 0 -263.5 52.5t-184 149.5t-107.5 233.5t-35 304.5zM344 717q0 -104 20.5 -198.5t63.5 -166t110.5 -113.5t163.5 -42 q51 0 98.5 2t119.5 22v985q-51 18 -109.5 24.5t-124.5 6.5q-162 0 -252 -127t-90 -393z" />
<glyph unicode="&#x153;" horiz-adv-x="1757" d="M88 512q0 262 115.5 398.5t337.5 136.5q113 0 194.5 -41t136.5 -107q55 70 139.5 109t194.5 39q72 0 143.5 -15.5t128 -59.5t91.5 -125t35 -212q0 -33 -2.5 -74t-12.5 -102h-606q6 -131 68.5 -203t199.5 -72q61 0 128 31t110 70l92 -181q-74 -59 -171.5 -93t-201.5 -34 q-113 0 -196.5 40t-141.5 110q-57 -72 -139 -111t-190 -39q-117 0 -202 38t-141.5 109t-83 169t-26.5 219zM322 512q0 -66 11 -124t37.5 -103t68.5 -72t102 -27q219 -4 219 326q0 66 -11.5 125t-38 103t-67.5 71t-102 27q-219 2 -219 -326zM989 653h391q-4 100 -50 143.5 t-122 43.5q-86 0 -142 -41t-77 -146zM1380 616v17v20h39z" />
<glyph unicode="&#x178;" horiz-adv-x="1142" d="M-37 1434h281l325 -662q78 160 160 332t156 330h264l-471 -867v-567h-238v563q-55 100 -116.5 212t-123 224.5t-122 223t-115.5 211.5zM242 1544q0 57 38.5 92t100.5 35q61 0 99 -34.5t38 -92.5q0 -55 -38 -90t-99 -35t-100 35t-39 90zM606 1544q0 57 37 92t98 35 q63 0 102.5 -34.5t39.5 -92.5q0 -55 -39 -90t-103 -35q-61 0 -98 35t-37 90z" />
<glyph unicode="&#x2c6;" horiz-adv-x="790" d="M55 1042l285 422h102l256 -422h-223l-88 148l-6 16l-6 -16l-99 -148h-221z" />
<glyph unicode="&#x2dc;" horiz-adv-x="817" d="M84 1288q72 80 127 111t102 31q41 0 73 -15.5t63 -32.5l-3 2q23 -10 42.5 -20t35.5 -10q29 0 97 67l81 -147q-66 -74 -116.5 -100.5t-91.5 -26.5q-39 0 -71 14.5t-61 30.5q-23 12 -42 21.5t-39 9.5q-16 0 -43 -18.5t-74 -65.5z" />
<glyph unicode="&#x2000;" horiz-adv-x="865" />
<glyph unicode="&#x2001;" horiz-adv-x="1731" />
<glyph unicode="&#x2002;" horiz-adv-x="865" />
<glyph unicode="&#x2003;" horiz-adv-x="1731" />
<glyph unicode="&#x2004;" horiz-adv-x="577" />
<glyph unicode="&#x2005;" horiz-adv-x="432" />
<glyph unicode="&#x2006;" horiz-adv-x="288" />
<glyph unicode="&#x2007;" horiz-adv-x="288" />
<glyph unicode="&#x2008;" horiz-adv-x="216" />
<glyph unicode="&#x2009;" horiz-adv-x="346" />
<glyph unicode="&#x200a;" horiz-adv-x="96" />
<glyph unicode="&#x2010;" horiz-adv-x="737" d="M88 475v217h535v-217h-535z" />
<glyph unicode="&#x2011;" horiz-adv-x="737" d="M88 475v217h535v-217h-535z" />
<glyph unicode="&#x2012;" horiz-adv-x="737" d="M88 475v217h535v-217h-535z" />
<glyph unicode="&#x2013;" horiz-adv-x="1351" d="M211 475v217h881v-217h-881z" />
<glyph unicode="&#x2014;" horiz-adv-x="1679" d="M217 475v217h1184v-217h-1184z" />
<glyph unicode="&#x2018;" horiz-adv-x="397" d="M45 1253q0 70 23.5 123.5t57.5 90t70.5 59t63.5 33.5l90 -125q-39 -20 -65.5 -43t-38.5 -52q47 -10 70.5 -44t23.5 -81q0 -61 -39 -97t-100 -36q-68 0 -112 43t-44 129z" />
<glyph unicode="&#x2019;" horiz-adv-x="397" d="M33 1063q39 20 65.5 43.5t36.5 52.5q-41 8 -65.5 42t-24.5 87q0 61 38 96t99 35q70 0 114 -43t44 -129q0 -70 -23.5 -123t-57.5 -91t-71.5 -60.5t-64.5 -32.5z" />
<glyph unicode="&#x201a;" horiz-adv-x="397" d="M33 -182q39 20 65 44q27 24 37 52q-41 8 -65 42q-25 34 -25 87q0 61 38 96t99 35q70 0 114 -43t44 -129q0 -70 -24 -123t-57 -91q-34 -38 -72 -60q-38 -23 -64 -33z" />
<glyph unicode="&#x201c;" horiz-adv-x="696" d="M45 1253q0 70 24 123t57 90q34 37 71 60t63 33l90 -125q-39 -20 -65 -43q-27 -23 -39 -52q47 -10 70 -44q24 -34 24 -81q0 -61 -39 -97t-100 -36q-68 0 -112 43t-44 129zM344 1253q0 70 24 123t57 90q34 37 71 60t63 33l90 -125q-39 -20 -65 -43q-27 -23 -39 -52 q47 -10 70 -44q24 -34 24 -81q0 -61 -39 -97t-100 -36q-68 0 -112 43t-44 129z" />
<glyph unicode="&#x201d;" horiz-adv-x="696" d="M33 1063q39 20 65 44q27 24 37 52q-41 8 -65 42q-25 34 -25 87q0 61 38 96t99 35q70 0 114 -43t44 -129q0 -70 -24 -123t-57 -91q-34 -38 -72 -60q-38 -23 -64 -33zM332 1063q39 20 65 44q27 24 37 52q-41 8 -65 42q-25 34 -25 87q0 61 38 96t99 35q70 0 114 -43t44 -129 q0 -70 -24 -123t-57 -91q-34 -38 -72 -60q-38 -23 -64 -33z" />
<glyph unicode="&#x201e;" horiz-adv-x="696" d="M33 -182q39 20 65 44q27 24 37 52q-41 8 -65 42q-25 34 -25 87q0 61 38 96t99 35q70 0 114 -43t44 -129q0 -70 -24 -123t-57 -91q-34 -38 -72 -60q-38 -23 -64 -33zM332 -182q39 20 65 44q27 24 37 52q-41 8 -65 42q-25 34 -25 87q0 61 38 96t99 35q70 0 114 -43t44 -129 q0 -70 -24 -123t-57 -91q-34 -38 -72 -60q-38 -23 -64 -33z" />
<glyph unicode="&#x2022;" horiz-adv-x="925" d="M143 627q0 68 23.5 123t64.5 95t96.5 62.5t118.5 22.5q61 0 116.5 -20.5t96.5 -59.5t65 -95.5t24 -127.5q0 -72 -24 -127.5t-65 -94t-96 -59t-117 -20.5q-63 0 -118.5 20.5t-96.5 59t-64.5 94t-23.5 127.5z" />
<glyph unicode="&#x2026;" horiz-adv-x="1554" d="M125 125q0 70 40 108.5t107 38.5q68 0 109 -38.5t41 -108.5q0 -66 -41 -107t-109 -41t-107.5 41t-39.5 107zM608 125q0 70 39 108.5t107 38.5t108.5 -38.5t40.5 -108.5q0 -66 -41 -107t-108 -41q-68 0 -107 41t-39 107zM1090 125q0 70 39.5 108.5t105.5 38.5 q70 0 109.5 -38.5t39.5 -108.5q0 -66 -39.5 -107t-109.5 -41q-66 0 -105.5 41t-39.5 107z" />
<glyph unicode="&#x202f;" horiz-adv-x="346" />
<glyph unicode="&#x2039;" horiz-adv-x="608" d="M39 526l342 494l160 -129l-209 -311l-56 -50q14 -10 28.5 -20t27.5 -21l219 -301l-158 -133z" />
<glyph unicode="&#x203a;" horiz-adv-x="608" d="M35 887l158 133l354 -471l-342 -494l-160 129l209 312l55 49q-14 10 -28.5 20t-26.5 21z" />
<glyph unicode="&#x205f;" horiz-adv-x="432" />
<glyph unicode="&#x20ac;" d="M-10 475l55 203h92v24q0 18 -1 16.5t1 16.5h-147l55 201h115q25 131 77 223t125.5 151.5t164.5 87t192 27.5q98 0 180 -16t154 -45l-66 -209q-59 29 -123.5 44t-142.5 15q-109 0 -195 -64.5t-127 -213.5h535l-49 -201h-510v-33v-12v-2v-1v-9h489l-49 -203h-416 q70 -285 349 -285q70 0 136 21.5t126 56.5l59 -190q-72 -57 -167 -79t-187 -22q-225 0 -369.5 120t-189.5 378h-166z" />
<glyph unicode="&#x2122;" horiz-adv-x="1812" d="M68 1198v205h739v-205h-258v-553h-223v553h-258zM807 645v758h207l211 -338l22 -45q6 12 11.5 24.5t11.5 22.5l196 336h209v-758h-219v354l-170 -270h-104l-160 254v-338h-215z" />
<glyph unicode="&#xe000;" horiz-adv-x="1024" d="M0 0v1024h1024v-1024h-1024z" />
</font>
</defs>
</svg>
